<svg id="canvas" height="auto" xmlns="http://www.w3.org/2000/svg" version="1.1" xmlns:xlink="http://www.w3.org/1999/xlink" viewBox="0 0 1500 800" width="auto" style="width: auto; height: auto;"><rect width="1500" height="800" fill="#4169e1"/><line x1="0" y1="115.38461538461539" x2="115.38461538461539" y2="0" stroke-linecap="square" stroke-width="3" stroke="#3458b3"/><line x1="115.38461538461539" y1="115.38461538461539" x2="230.76923076923077" y2="0" stroke-linecap="square" stroke-width="3" stroke="#375bb7"/><line x1="230.76923076923077" y1="0" x2="346.1538461538462" y2="115.38461538461539" stroke-linecap="square" stroke-width="3" stroke="#3a5ebb"/><line x1="346.1538461538462" y1="0" x2="461.53846153846155" y2="115.38461538461539" stroke-linecap="square" stroke-width="3" stroke="#3e61bf"/><line x1="461.53846153846155" y1="0" x2="576.9230769230769" y2="115.38461538461539" stroke-linecap="square" stroke-width="3" stroke="#4163c2"/><line x1="576.9230769230769" y1="115.38461538461539" x2="692.3076923076923" y2="0" stroke-linecap="square" stroke-width="3" stroke="#4466c6"/><line x1="692.3076923076923" y1="0" x2="807.6923076923076" y2="115.38461538461539" stroke-linecap="square" stroke-width="3" stroke="#4769ca"/><line x1="807.6923076923076" y1="0" x2="923.076923076923" y2="115.38461538461539" stroke-linecap="square" stroke-width="3" stroke="#4a6cce"/><line x1="923.076923076923" y1="0" x2="1038.4615384615383" y2="115.38461538461539" stroke-linecap="square" stroke-width="3" stroke="#4d6fd2"/><line x1="1038.4615384615383" y1="0" x2="1153.8461538461538" y2="115.38461538461539" stroke-linecap="square" stroke-width="3" stroke="#5172d6"/><line x1="1153.8461538461538" y1="115.38461538461539" x2="1269.2307692307693" y2="0" stroke-linecap="square" stroke-width="3" stroke="#5474d9"/><line x1="1269.2307692307693" y1="0" x2="1384.6153846153848" y2="115.38461538461539" stroke-linecap="square" stroke-width="3" stroke="#5777dd"/><line x1="1384.6153846153848" y1="115.38461538461539" x2="1500.0000000000002" y2="0" stroke-linecap="square" stroke-width="3" stroke="#5a7ae1"/><line x1="0" y1="230.76923076923077" x2="115.38461538461539" y2="115.38461538461539" stroke-linecap="square" stroke-width="3" stroke="#3458b3"/><line x1="115.38461538461539" y1="230.76923076923077" x2="230.76923076923077" y2="115.38461538461539" stroke-linecap="square" stroke-width="3" stroke="#375bb7"/><line x1="230.76923076923077" y1="115.38461538461539" x2="346.1538461538462" y2="230.76923076923077" stroke-linecap="square" stroke-width="3" stroke="#3a5ebb"/><line x1="346.1538461538462" y1="230.76923076923077" x2="461.53846153846155" y2="115.38461538461539" stroke-linecap="square" stroke-width="3" stroke="#3e61bf"/><line x1="461.53846153846155" y1="115.38461538461539" x2="576.9230769230769" y2="230.76923076923077" stroke-linecap="square" stroke-width="3" stroke="#4163c2"/><line x1="576.9230769230769" y1="115.38461538461539" x2="692.3076923076923" y2="230.76923076923077" stroke-linecap="square" stroke-width="3" stroke="#4466c6"/><line x1="692.3076923076923" y1="115.38461538461539" x2="807.6923076923076" y2="230.76923076923077" stroke-linecap="square" stroke-width="3" stroke="#4769ca"/><line x1="807.6923076923076" y1="230.76923076923077" x2="923.076923076923" y2="115.38461538461539" stroke-linecap="square" stroke-width="3" stroke="#4a6cce"/><line x1="923.076923076923" y1="230.76923076923077" x2="1038.4615384615383" y2="115.38461538461539" stroke-linecap="square" stroke-width="3" stroke="#4d6fd2"/><line x1="1038.4615384615383" y1="230.76923076923077" x2="1153.8461538461538" y2="115.38461538461539" stroke-linecap="square" stroke-width="3" stroke="#5172d6"/><line x1="1153.8461538461538" y1="115.38461538461539" x2="1269.2307692307693" y2="230.76923076923077" stroke-linecap="square" stroke-width="3" stroke="#5474d9"/><line x1="1269.2307692307693" y1="115.38461538461539" x2="1384.6153846153848" y2="230.76923076923077" stroke-linecap="square" stroke-width="3" stroke="#5777dd"/><line x1="1384.6153846153848" y1="230.76923076923077" x2="1500.0000000000002" y2="115.38461538461539" stroke-linecap="square" stroke-width="3" stroke="#5a7ae1"/><line x1="0" y1="230.76923076923077" x2="115.38461538461539" y2="346.1538461538462" stroke-linecap="square" stroke-width="3" stroke="#3458b3"/><line x1="115.38461538461539" y1="230.76923076923077" x2="230.76923076923077" y2="346.1538461538462" stroke-linecap="square" stroke-width="3" stroke="#375bb7"/><line x1="230.76923076923077" y1="230.76923076923077" x2="346.1538461538462" y2="346.1538461538462" stroke-linecap="square" stroke-width="3" stroke="#3a5ebb"/><line x1="346.1538461538462" y1="230.76923076923077" x2="461.53846153846155" y2="346.1538461538462" stroke-linecap="square" stroke-width="3" stroke="#3e61bf"/><line x1="461.53846153846155" y1="346.1538461538462" x2="576.9230769230769" y2="230.76923076923077" stroke-linecap="square" stroke-width="3" stroke="#4163c2"/><line x1="576.9230769230769" y1="346.1538461538462" x2="692.3076923076923" y2="230.76923076923077" stroke-linecap="square" stroke-width="3" stroke="#4466c6"/><line x1="692.3076923076923" y1="230.76923076923077" x2="807.6923076923076" y2="346.1538461538462" stroke-linecap="square" stroke-width="3" stroke="#4769ca"/><line x1="807.6923076923076" y1="230.76923076923077" x2="923.076923076923" y2="346.1538461538462" stroke-linecap="square" stroke-width="3" stroke="#4a6cce"/><line x1="923.076923076923" y1="346.1538461538462" x2="1038.4615384615383" y2="230.76923076923077" stroke-linecap="square" stroke-width="3" stroke="#4d6fd2"/><line x1="1038.4615384615383" y1="346.1538461538462" x2="1153.8461538461538" y2="230.76923076923077" stroke-linecap="square" stroke-width="3" stroke="#5172d6"/><line x1="1153.8461538461538" y1="230.76923076923077" x2="1269.2307692307693" y2="346.1538461538462" stroke-linecap="square" stroke-width="3" stroke="#5474d9"/><line x1="1269.2307692307693" y1="230.76923076923077" x2="1384.6153846153848" y2="346.1538461538462" stroke-linecap="square" stroke-width="3" stroke="#5777dd"/><line x1="1384.6153846153848" y1="346.1538461538462" x2="1500.0000000000002" y2="230.76923076923077" stroke-linecap="square" stroke-width="3" stroke="#5a7ae1"/><line x1="0" y1="346.1538461538462" x2="115.38461538461539" y2="461.53846153846155" stroke-linecap="square" stroke-width="3" stroke="#3458b3"/><line x1="115.38461538461539" y1="346.1538461538462" x2="230.76923076923077" y2="461.53846153846155" stroke-linecap="square" stroke-width="3" stroke="#375bb7"/><line x1="230.76923076923077" y1="461.53846153846155" x2="346.1538461538462" y2="346.1538461538462" stroke-linecap="square" stroke-width="3" stroke="#3a5ebb"/><line x1="346.1538461538462" y1="346.1538461538462" x2="461.53846153846155" y2="461.53846153846155" stroke-linecap="square" stroke-width="3" stroke="#3e61bf"/><line x1="461.53846153846155" y1="461.53846153846155" x2="576.9230769230769" y2="346.1538461538462" stroke-linecap="square" stroke-width="3" stroke="#4163c2"/><line x1="576.9230769230769" y1="461.53846153846155" x2="692.3076923076923" y2="346.1538461538462" stroke-linecap="square" stroke-width="3" stroke="#4466c6"/><line x1="692.3076923076923" y1="346.1538461538462" x2="807.6923076923076" y2="461.53846153846155" stroke-linecap="square" stroke-width="3" stroke="#4769ca"/><line x1="807.6923076923076" y1="461.53846153846155" x2="923.076923076923" y2="346.1538461538462" stroke-linecap="square" stroke-width="3" stroke="#4a6cce"/><line x1="923.076923076923" y1="346.1538461538462" x2="1038.4615384615383" y2="461.53846153846155" stroke-linecap="square" stroke-width="3" stroke="#4d6fd2"/><line x1="1038.4615384615383" y1="346.1538461538462" x2="1153.8461538461538" y2="461.53846153846155" stroke-linecap="square" stroke-width="3" stroke="#5172d6"/><line x1="1153.8461538461538" y1="461.53846153846155" x2="1269.2307692307693" y2="346.1538461538462" stroke-linecap="square" stroke-width="3" stroke="#5474d9"/><line x1="1269.2307692307693" y1="346.1538461538462" x2="1384.6153846153848" y2="461.53846153846155" stroke-linecap="square" stroke-width="3" stroke="#5777dd"/><line x1="1384.6153846153848" y1="461.53846153846155" x2="1500.0000000000002" y2="346.1538461538462" stroke-linecap="square" stroke-width="3" stroke="#5a7ae1"/><line x1="0" y1="576.9230769230769" x2="115.38461538461539" y2="461.53846153846155" stroke-linecap="square" stroke-width="3" stroke="#3458b3"/><line x1="115.38461538461539" y1="576.9230769230769" x2="230.76923076923077" y2="461.53846153846155" stroke-linecap="square" stroke-width="3" stroke="#375bb7"/><line x1="230.76923076923077" y1="576.9230769230769" x2="346.1538461538462" y2="461.53846153846155" stroke-linecap="square" stroke-width="3" stroke="#3a5ebb"/><line x1="346.1538461538462" y1="576.9230769230769" x2="461.53846153846155" y2="461.53846153846155" stroke-linecap="square" stroke-width="3" stroke="#3e61bf"/><line x1="461.53846153846155" y1="461.53846153846155" x2="576.9230769230769" y2="576.9230769230769" stroke-linecap="square" stroke-width="3" stroke="#4163c2"/><line x1="576.9230769230769" y1="461.53846153846155" x2="692.3076923076923" y2="576.9230769230769" stroke-linecap="square" stroke-width="3" stroke="#4466c6"/><line x1="692.3076923076923" y1="461.53846153846155" x2="807.6923076923076" y2="576.9230769230769" stroke-linecap="square" stroke-width="3" stroke="#4769ca"/><line x1="807.6923076923076" y1="461.53846153846155" x2="923.076923076923" y2="576.9230769230769" stroke-linecap="square" stroke-width="3" stroke="#4a6cce"/><line x1="923.076923076923" y1="461.53846153846155" x2="1038.4615384615383" y2="576.9230769230769" stroke-linecap="square" stroke-width="3" stroke="#4d6fd2"/><line x1="1038.4615384615383" y1="576.9230769230769" x2="1153.8461538461538" y2="461.53846153846155" stroke-linecap="square" stroke-width="3" stroke="#5172d6"/><line x1="1153.8461538461538" y1="461.53846153846155" x2="1269.2307692307693" y2="576.9230769230769" stroke-linecap="square" stroke-width="3" stroke="#5474d9"/><line x1="1269.2307692307693" y1="576.9230769230769" x2="1384.6153846153848" y2="461.53846153846155" stroke-linecap="square" stroke-width="3" stroke="#5777dd"/><line x1="1384.6153846153848" y1="576.9230769230769" x2="1500.0000000000002" y2="461.53846153846155" stroke-linecap="square" stroke-width="3" stroke="#5a7ae1"/><line x1="0" y1="576.9230769230769" x2="115.38461538461539" y2="692.3076923076923" stroke-linecap="square" stroke-width="3" stroke="#3458b3"/><line x1="115.38461538461539" y1="692.3076923076923" x2="230.76923076923077" y2="576.9230769230769" stroke-linecap="square" stroke-width="3" stroke="#375bb7"/><line x1="230.76923076923077" y1="692.3076923076923" x2="346.1538461538462" y2="576.9230769230769" stroke-linecap="square" stroke-width="3" stroke="#3a5ebb"/><line x1="346.1538461538462" y1="692.3076923076923" x2="461.53846153846155" y2="576.9230769230769" stroke-linecap="square" stroke-width="3" stroke="#3e61bf"/><line x1="461.53846153846155" y1="692.3076923076923" x2="576.9230769230769" y2="576.9230769230769" stroke-linecap="square" stroke-width="3" stroke="#4163c2"/><line x1="576.9230769230769" y1="576.9230769230769" x2="692.3076923076923" y2="692.3076923076923" stroke-linecap="square" stroke-width="3" stroke="#4466c6"/><line x1="692.3076923076923" y1="576.9230769230769" x2="807.6923076923076" y2="692.3076923076923" stroke-linecap="square" stroke-width="3" stroke="#4769ca"/><line x1="807.6923076923076" y1="692.3076923076923" x2="923.076923076923" y2="576.9230769230769" stroke-linecap="square" stroke-width="3" stroke="#4a6cce"/><line x1="923.076923076923" y1="692.3076923076923" x2="1038.4615384615383" y2="576.9230769230769" stroke-linecap="square" stroke-width="3" stroke="#4d6fd2"/><line x1="1038.4615384615383" y1="692.3076923076923" x2="1153.8461538461538" y2="576.9230769230769" stroke-linecap="square" stroke-width="3" stroke="#5172d6"/><line x1="1153.8461538461538" y1="576.9230769230769" x2="1269.2307692307693" y2="692.3076923076923" stroke-linecap="square" stroke-width="3" stroke="#5474d9"/><line x1="1269.2307692307693" y1="576.9230769230769" x2="1384.6153846153848" y2="692.3076923076923" stroke-linecap="square" stroke-width="3" stroke="#5777dd"/><line x1="1384.6153846153848" y1="576.9230769230769" x2="1500.0000000000002" y2="692.3076923076923" stroke-linecap="square" stroke-width="3" stroke="#5a7ae1"/><line x1="0" y1="807.6923076923076" x2="115.38461538461539" y2="692.3076923076923" stroke-linecap="square" stroke-width="3" stroke="#3458b3"/><line x1="115.38461538461539" y1="807.6923076923076" x2="230.76923076923077" y2="692.3076923076923" stroke-linecap="square" stroke-width="3" stroke="#375bb7"/><line x1="230.76923076923077" y1="692.3076923076923" x2="346.1538461538462" y2="807.6923076923076" stroke-linecap="square" stroke-width="3" stroke="#3a5ebb"/><line x1="346.1538461538462" y1="807.6923076923076" x2="461.53846153846155" y2="692.3076923076923" stroke-linecap="square" stroke-width="3" stroke="#3e61bf"/><line x1="461.53846153846155" y1="692.3076923076923" x2="576.9230769230769" y2="807.6923076923076" stroke-linecap="square" stroke-width="3" stroke="#4163c2"/><line x1="576.9230769230769" y1="692.3076923076923" x2="692.3076923076923" y2="807.6923076923076" stroke-linecap="square" stroke-width="3" stroke="#4466c6"/><line x1="692.3076923076923" y1="807.6923076923076" x2="807.6923076923076" y2="692.3076923076923" stroke-linecap="square" stroke-width="3" stroke="#4769ca"/><line x1="807.6923076923076" y1="692.3076923076923" x2="923.076923076923" y2="807.6923076923076" stroke-linecap="square" stroke-width="3" stroke="#4a6cce"/><line x1="923.076923076923" y1="807.6923076923076" x2="1038.4615384615383" y2="692.3076923076923" stroke-linecap="square" stroke-width="3" stroke="#4d6fd2"/><line x1="1038.4615384615383" y1="807.6923076923076" x2="1153.8461538461538" y2="692.3076923076923" stroke-linecap="square" stroke-width="3" stroke="#5172d6"/><line x1="1153.8461538461538" y1="807.6923076923076" x2="1269.2307692307693" y2="692.3076923076923" stroke-linecap="square" stroke-width="3" stroke="#5474d9"/><line x1="1269.2307692307693" y1="807.6923076923076" x2="1384.6153846153848" y2="692.3076923076923" stroke-linecap="square" stroke-width="3" stroke="#5777dd"/><line x1="1384.6153846153848" y1="807.6923076923076" x2="1500.0000000000002" y2="692.3076923076923" stroke-linecap="square" stroke-width="3" stroke="#5a7ae1"/></svg>