<svg id="canvas" height="auto" xmlns="http://www.w3.org/2000/svg" version="1.1" xmlns:xlink="http://www.w3.org/1999/xlink" viewBox="0 0 1500 800" width="auto" style="width: auto; height: auto;"><rect width="1500" height="800" fill="#00bfa6"/><line x1="0" y1="100" x2="100" y2="0" stroke-linecap="square" stroke-width="3" stroke="#009688"/><line x1="100" y1="0" x2="200" y2="100" stroke-linecap="square" stroke-width="3" stroke="#049b8d"/><line x1="200" y1="0" x2="300" y2="100" stroke-linecap="square" stroke-width="3" stroke="#09a092"/><line x1="300" y1="0" x2="400" y2="100" stroke-linecap="square" stroke-width="3" stroke="#0da598"/><line x1="400" y1="0" x2="500" y2="100" stroke-linecap="square" stroke-width="3" stroke="#11aa9d"/><line x1="500" y1="100" x2="600" y2="0" stroke-linecap="square" stroke-width="3" stroke="#16afa2"/><line x1="600" y1="100" x2="700" y2="0" stroke-linecap="square" stroke-width="3" stroke="#1ab4a7"/><line x1="700" y1="100" x2="800" y2="0" stroke-linecap="square" stroke-width="3" stroke="#1eb9ad"/><line x1="800" y1="100" x2="900" y2="0" stroke-linecap="square" stroke-width="3" stroke="#23bdb2"/><line x1="900" y1="100" x2="1000" y2="0" stroke-linecap="square" stroke-width="3" stroke="#27c2b7"/><line x1="1000" y1="100" x2="1100" y2="0" stroke-linecap="square" stroke-width="3" stroke="#2cc7bc"/><line x1="1100" y1="0" x2="1200" y2="100" stroke-linecap="square" stroke-width="3" stroke="#30ccc1"/><line x1="1200" y1="100" x2="1300" y2="0" stroke-linecap="square" stroke-width="3" stroke="#34d1c7"/><line x1="1300" y1="0" x2="1400" y2="100" stroke-linecap="square" stroke-width="3" stroke="#39d6cc"/><line x1="1400" y1="100" x2="1500" y2="0" stroke-linecap="square" stroke-width="3" stroke="#3ddbd1"/><line x1="0" y1="100" x2="100" y2="200" stroke-linecap="square" stroke-width="3" stroke="#009688"/><line x1="100" y1="100" x2="200" y2="200" stroke-linecap="square" stroke-width="3" stroke="#049b8d"/><line x1="200" y1="200" x2="300" y2="100" stroke-linecap="square" stroke-width="3" stroke="#09a092"/><line x1="300" y1="100" x2="400" y2="200" stroke-linecap="square" stroke-width="3" stroke="#0da598"/><line x1="400" y1="100" x2="500" y2="200" stroke-linecap="square" stroke-width="3" stroke="#11aa9d"/><line x1="500" y1="100" x2="600" y2="200" stroke-linecap="square" stroke-width="3" stroke="#16afa2"/><line x1="600" y1="200" x2="700" y2="100" stroke-linecap="square" stroke-width="3" stroke="#1ab4a7"/><line x1="700" y1="100" x2="800" y2="200" stroke-linecap="square" stroke-width="3" stroke="#1eb9ad"/><line x1="800" y1="100" x2="900" y2="200" stroke-linecap="square" stroke-width="3" stroke="#23bdb2"/><line x1="900" y1="100" x2="1000" y2="200" stroke-linecap="square" stroke-width="3" stroke="#27c2b7"/><line x1="1000" y1="200" x2="1100" y2="100" stroke-linecap="square" stroke-width="3" stroke="#2cc7bc"/><line x1="1100" y1="100" x2="1200" y2="200" stroke-linecap="square" stroke-width="3" stroke="#30ccc1"/><line x1="1200" y1="100" x2="1300" y2="200" stroke-linecap="square" stroke-width="3" stroke="#34d1c7"/><line x1="1300" y1="200" x2="1400" y2="100" stroke-linecap="square" stroke-width="3" stroke="#39d6cc"/><line x1="1400" y1="100" x2="1500" y2="200" stroke-linecap="square" stroke-width="3" stroke="#3ddbd1"/><line x1="0" y1="300" x2="100" y2="200" stroke-linecap="square" stroke-width="3" stroke="#009688"/><line x1="100" y1="300" x2="200" y2="200" stroke-linecap="square" stroke-width="3" stroke="#049b8d"/><line x1="200" y1="200" x2="300" y2="300" stroke-linecap="square" stroke-width="3" stroke="#09a092"/><line x1="300" y1="200" x2="400" y2="300" stroke-linecap="square" stroke-width="3" stroke="#0da598"/><line x1="400" y1="200" x2="500" y2="300" stroke-linecap="square" stroke-width="3" stroke="#11aa9d"/><line x1="500" y1="300" x2="600" y2="200" stroke-linecap="square" stroke-width="3" stroke="#16afa2"/><line x1="600" y1="200" x2="700" y2="300" stroke-linecap="square" stroke-width="3" stroke="#1ab4a7"/><line x1="700" y1="300" x2="800" y2="200" stroke-linecap="square" stroke-width="3" stroke="#1eb9ad"/><line x1="800" y1="200" x2="900" y2="300" stroke-linecap="square" stroke-width="3" stroke="#23bdb2"/><line x1="900" y1="300" x2="1000" y2="200" stroke-linecap="square" stroke-width="3" stroke="#27c2b7"/><line x1="1000" y1="300" x2="1100" y2="200" stroke-linecap="square" stroke-width="3" stroke="#2cc7bc"/><line x1="1100" y1="200" x2="1200" y2="300" stroke-linecap="square" stroke-width="3" stroke="#30ccc1"/><line x1="1200" y1="300" x2="1300" y2="200" stroke-linecap="square" stroke-width="3" stroke="#34d1c7"/><line x1="1300" y1="300" x2="1400" y2="200" stroke-linecap="square" stroke-width="3" stroke="#39d6cc"/><line x1="1400" y1="300" x2="1500" y2="200" stroke-linecap="square" stroke-width="3" stroke="#3ddbd1"/><line x1="0" y1="400" x2="100" y2="300" stroke-linecap="square" stroke-width="3" stroke="#009688"/><line x1="100" y1="300" x2="200" y2="400" stroke-linecap="square" stroke-width="3" stroke="#049b8d"/><line x1="200" y1="400" x2="300" y2="300" stroke-linecap="square" stroke-width="3" stroke="#09a092"/><line x1="300" y1="300" x2="400" y2="400" stroke-linecap="square" stroke-width="3" stroke="#0da598"/><line x1="400" y1="400" x2="500" y2="300" stroke-linecap="square" stroke-width="3" stroke="#11aa9d"/><line x1="500" y1="300" x2="600" y2="400" stroke-linecap="square" stroke-width="3" stroke="#16afa2"/><line x1="600" y1="400" x2="700" y2="300" stroke-linecap="square" stroke-width="3" stroke="#1ab4a7"/><line x1="700" y1="400" x2="800" y2="300" stroke-linecap="square" stroke-width="3" stroke="#1eb9ad"/><line x1="800" y1="400" x2="900" y2="300" stroke-linecap="square" stroke-width="3" stroke="#23bdb2"/><line x1="900" y1="400" x2="1000" y2="300" stroke-linecap="square" stroke-width="3" stroke="#27c2b7"/><line x1="1000" y1="400" x2="1100" y2="300" stroke-linecap="square" stroke-width="3" stroke="#2cc7bc"/><line x1="1100" y1="300" x2="1200" y2="400" stroke-linecap="square" stroke-width="3" stroke="#30ccc1"/><line x1="1200" y1="400" x2="1300" y2="300" stroke-linecap="square" stroke-width="3" stroke="#34d1c7"/><line x1="1300" y1="300" x2="1400" y2="400" stroke-linecap="square" stroke-width="3" stroke="#39d6cc"/><line x1="1400" y1="300" x2="1500" y2="400" stroke-linecap="square" stroke-width="3" stroke="#3ddbd1"/><line x1="0" y1="400" x2="100" y2="500" stroke-linecap="square" stroke-width="3" stroke="#009688"/><line x1="100" y1="400" x2="200" y2="500" stroke-linecap="square" stroke-width="3" stroke="#049b8d"/><line x1="200" y1="500" x2="300" y2="400" stroke-linecap="square" stroke-width="3" stroke="#09a092"/><line x1="300" y1="500" x2="400" y2="400" stroke-linecap="square" stroke-width="3" stroke="#0da598"/><line x1="400" y1="400" x2="500" y2="500" stroke-linecap="square" stroke-width="3" stroke="#11aa9d"/><line x1="500" y1="500" x2="600" y2="400" stroke-linecap="square" stroke-width="3" stroke="#16afa2"/><line x1="600" y1="500" x2="700" y2="400" stroke-linecap="square" stroke-width="3" stroke="#1ab4a7"/><line x1="700" y1="400" x2="800" y2="500" stroke-linecap="square" stroke-width="3" stroke="#1eb9ad"/><line x1="800" y1="400" x2="900" y2="500" stroke-linecap="square" stroke-width="3" stroke="#23bdb2"/><line x1="900" y1="400" x2="1000" y2="500" stroke-linecap="square" stroke-width="3" stroke="#27c2b7"/><line x1="1000" y1="400" x2="1100" y2="500" stroke-linecap="square" stroke-width="3" stroke="#2cc7bc"/><line x1="1100" y1="500" x2="1200" y2="400" stroke-linecap="square" stroke-width="3" stroke="#30ccc1"/><line x1="1200" y1="500" x2="1300" y2="400" stroke-linecap="square" stroke-width="3" stroke="#34d1c7"/><line x1="1300" y1="400" x2="1400" y2="500" stroke-linecap="square" stroke-width="3" stroke="#39d6cc"/><line x1="1400" y1="500" x2="1500" y2="400" stroke-linecap="square" stroke-width="3" stroke="#3ddbd1"/><line x1="0" y1="600" x2="100" y2="500" stroke-linecap="square" stroke-width="3" stroke="#009688"/><line x1="100" y1="500" x2="200" y2="600" stroke-linecap="square" stroke-width="3" stroke="#049b8d"/><line x1="200" y1="600" x2="300" y2="500" stroke-linecap="square" stroke-width="3" stroke="#09a092"/><line x1="300" y1="600" x2="400" y2="500" stroke-linecap="square" stroke-width="3" stroke="#0da598"/><line x1="400" y1="500" x2="500" y2="600" stroke-linecap="square" stroke-width="3" stroke="#11aa9d"/><line x1="500" y1="600" x2="600" y2="500" stroke-linecap="square" stroke-width="3" stroke="#16afa2"/><line x1="600" y1="600" x2="700" y2="500" stroke-linecap="square" stroke-width="3" stroke="#1ab4a7"/><line x1="700" y1="600" x2="800" y2="500" stroke-linecap="square" stroke-width="3" stroke="#1eb9ad"/><line x1="800" y1="500" x2="900" y2="600" stroke-linecap="square" stroke-width="3" stroke="#23bdb2"/><line x1="900" y1="500" x2="1000" y2="600" stroke-linecap="square" stroke-width="3" stroke="#27c2b7"/><line x1="1000" y1="500" x2="1100" y2="600" stroke-linecap="square" stroke-width="3" stroke="#2cc7bc"/><line x1="1100" y1="600" x2="1200" y2="500" stroke-linecap="square" stroke-width="3" stroke="#30ccc1"/><line x1="1200" y1="500" x2="1300" y2="600" stroke-linecap="square" stroke-width="3" stroke="#34d1c7"/><line x1="1300" y1="600" x2="1400" y2="500" stroke-linecap="square" stroke-width="3" stroke="#39d6cc"/><line x1="1400" y1="600" x2="1500" y2="500" stroke-linecap="square" stroke-width="3" stroke="#3ddbd1"/><line x1="0" y1="600" x2="100" y2="700" stroke-linecap="square" stroke-width="3" stroke="#009688"/><line x1="100" y1="700" x2="200" y2="600" stroke-linecap="square" stroke-width="3" stroke="#049b8d"/><line x1="200" y1="700" x2="300" y2="600" stroke-linecap="square" stroke-width="3" stroke="#09a092"/><line x1="300" y1="600" x2="400" y2="700" stroke-linecap="square" stroke-width="3" stroke="#0da598"/><line x1="400" y1="700" x2="500" y2="600" stroke-linecap="square" stroke-width="3" stroke="#11aa9d"/><line x1="500" y1="700" x2="600" y2="600" stroke-linecap="square" stroke-width="3" stroke="#16afa2"/><line x1="600" y1="600" x2="700" y2="700" stroke-linecap="square" stroke-width="3" stroke="#1ab4a7"/><line x1="700" y1="600" x2="800" y2="700" stroke-linecap="square" stroke-width="3" stroke="#1eb9ad"/><line x1="800" y1="600" x2="900" y2="700" stroke-linecap="square" stroke-width="3" stroke="#23bdb2"/><line x1="900" y1="700" x2="1000" y2="600" stroke-linecap="square" stroke-width="3" stroke="#27c2b7"/><line x1="1000" y1="700" x2="1100" y2="600" stroke-linecap="square" stroke-width="3" stroke="#2cc7bc"/><line x1="1100" y1="600" x2="1200" y2="700" stroke-linecap="square" stroke-width="3" stroke="#30ccc1"/><line x1="1200" y1="700" x2="1300" y2="600" stroke-linecap="square" stroke-width="3" stroke="#34d1c7"/><line x1="1300" y1="600" x2="1400" y2="700" stroke-linecap="square" stroke-width="3" stroke="#39d6cc"/><line x1="1400" y1="700" x2="1500" y2="600" stroke-linecap="square" stroke-width="3" stroke="#3ddbd1"/><line x1="0" y1="700" x2="100" y2="800" stroke-linecap="square" stroke-width="3" stroke="#009688"/><line x1="100" y1="800" x2="200" y2="700" stroke-linecap="square" stroke-width="3" stroke="#049b8d"/><line x1="200" y1="800" x2="300" y2="700" stroke-linecap="square" stroke-width="3" stroke="#09a092"/><line x1="300" y1="800" x2="400" y2="700" stroke-linecap="square" stroke-width="3" stroke="#0da598"/><line x1="400" y1="800" x2="500" y2="700" stroke-linecap="square" stroke-width="3" stroke="#11aa9d"/><line x1="500" y1="800" x2="600" y2="700" stroke-linecap="square" stroke-width="3" stroke="#16afa2"/><line x1="600" y1="800" x2="700" y2="700" stroke-linecap="square" stroke-width="3" stroke="#1ab4a7"/><line x1="700" y1="700" x2="800" y2="800" stroke-linecap="square" stroke-width="3" stroke="#1eb9ad"/><line x1="800" y1="800" x2="900" y2="700" stroke-linecap="square" stroke-width="3" stroke="#23bdb2"/><line x1="900" y1="700" x2="1000" y2="800" stroke-linecap="square" stroke-width="3" stroke="#27c2b7"/><line x1="1000" y1="800" x2="1100" y2="700" stroke-linecap="square" stroke-width="3" stroke="#2cc7bc"/><line x1="1100" y1="800" x2="1200" y2="700" stroke-linecap="square" stroke-width="3" stroke="#30ccc1"/><line x1="1200" y1="700" x2="1300" y2="800" stroke-linecap="square" stroke-width="3" stroke="#34d1c7"/><line x1="1300" y1="800" x2="1400" y2="700" stroke-linecap="square" stroke-width="3" stroke="#39d6cc"/><line x1="1400" y1="800" x2="1500" y2="700" stroke-linecap="square" stroke-width="3" stroke="#3ddbd1"/></svg>