<svg id="canvas" height="auto" xmlns="http://www.w3.org/2000/svg" version="1.1" xmlns:xlink="http://www.w3.org/1999/xlink" viewBox="0 0 1500 800" width="auto" style="width: auto; height: auto;"><rect width="1500" height="800" fill="#1e1e1e"/><line x1="0" y1="88.23529411764706" x2="88.23529411764706" y2="0" stroke-linecap="square" stroke-width="1" stroke="#00bfa6"/><line x1="88.23529411764706" y1="88.23529411764706" x2="176.47058823529412" y2="0" stroke-linecap="square" stroke-width="1" stroke="#04c1a9"/><line x1="176.47058823529412" y1="0" x2="264.70588235294116" y2="88.23529411764706" stroke-linecap="square" stroke-width="1" stroke="#08c3ab"/><line x1="264.70588235294116" y1="0" x2="352.94117647058823" y2="88.23529411764706" stroke-linecap="square" stroke-width="1" stroke="#0bc4ae"/><line x1="352.94117647058823" y1="88.23529411764706" x2="441.1764705882353" y2="0" stroke-linecap="square" stroke-width="1" stroke="#0fc6b1"/><line x1="441.1764705882353" y1="0" x2="529.4117647058823" y2="88.23529411764706" stroke-linecap="square" stroke-width="1" stroke="#13c8b3"/><line x1="529.4117647058823" y1="0" x2="617.6470588235294" y2="88.23529411764706" stroke-linecap="square" stroke-width="1" stroke="#17cab6"/><line x1="617.6470588235294" y1="0" x2="705.8823529411765" y2="88.23529411764706" stroke-linecap="square" stroke-width="1" stroke="#1bcbb9"/><line x1="705.8823529411765" y1="88.23529411764706" x2="794.1176470588235" y2="0" stroke-linecap="square" stroke-width="1" stroke="#1fcdbc"/><line x1="794.1176470588235" y1="0" x2="882.3529411764706" y2="88.23529411764706" stroke-linecap="square" stroke-width="1" stroke="#22cfbe"/><line x1="882.3529411764706" y1="88.23529411764706" x2="970.5882352941177" y2="0" stroke-linecap="square" stroke-width="1" stroke="#26d1c1"/><line x1="970.5882352941177" y1="88.23529411764706" x2="1058.8235294117646" y2="0" stroke-linecap="square" stroke-width="1" stroke="#2ad2c4"/><line x1="1058.8235294117646" y1="0" x2="1147.0588235294117" y2="88.23529411764706" stroke-linecap="square" stroke-width="1" stroke="#2ed4c6"/><line x1="1147.0588235294117" y1="0" x2="1235.2941176470588" y2="88.23529411764706" stroke-linecap="square" stroke-width="1" stroke="#32d6c9"/><line x1="1235.2941176470588" y1="88.23529411764706" x2="1323.5294117647059" y2="0" stroke-linecap="square" stroke-width="1" stroke="#35d8cc"/><line x1="1323.5294117647059" y1="0" x2="1411.764705882353" y2="88.23529411764706" stroke-linecap="square" stroke-width="1" stroke="#39d9ce"/><line x1="1411.764705882353" y1="0" x2="1500" y2="88.23529411764706" stroke-linecap="square" stroke-width="1" stroke="#3ddbd1"/><line x1="0" y1="88.23529411764706" x2="88.23529411764706" y2="176.47058823529412" stroke-linecap="square" stroke-width="1" stroke="#00bfa6"/><line x1="88.23529411764706" y1="176.47058823529412" x2="176.47058823529412" y2="88.23529411764706" stroke-linecap="square" stroke-width="1" stroke="#04c1a9"/><line x1="176.47058823529412" y1="88.23529411764706" x2="264.70588235294116" y2="176.47058823529412" stroke-linecap="square" stroke-width="1" stroke="#08c3ab"/><line x1="264.70588235294116" y1="176.47058823529412" x2="352.94117647058823" y2="88.23529411764706" stroke-linecap="square" stroke-width="1" stroke="#0bc4ae"/><line x1="352.94117647058823" y1="176.47058823529412" x2="441.1764705882353" y2="88.23529411764706" stroke-linecap="square" stroke-width="1" stroke="#0fc6b1"/><line x1="441.1764705882353" y1="176.47058823529412" x2="529.4117647058823" y2="88.23529411764706" stroke-linecap="square" stroke-width="1" stroke="#13c8b3"/><line x1="529.4117647058823" y1="88.23529411764706" x2="617.6470588235294" y2="176.47058823529412" stroke-linecap="square" stroke-width="1" stroke="#17cab6"/><line x1="617.6470588235294" y1="88.23529411764706" x2="705.8823529411765" y2="176.47058823529412" stroke-linecap="square" stroke-width="1" stroke="#1bcbb9"/><line x1="705.8823529411765" y1="88.23529411764706" x2="794.1176470588235" y2="176.47058823529412" stroke-linecap="square" stroke-width="1" stroke="#1fcdbc"/><line x1="794.1176470588235" y1="88.23529411764706" x2="882.3529411764706" y2="176.47058823529412" stroke-linecap="square" stroke-width="1" stroke="#22cfbe"/><line x1="882.3529411764706" y1="176.47058823529412" x2="970.5882352941177" y2="88.23529411764706" stroke-linecap="square" stroke-width="1" stroke="#26d1c1"/><line x1="970.5882352941177" y1="176.47058823529412" x2="1058.8235294117646" y2="88.23529411764706" stroke-linecap="square" stroke-width="1" stroke="#2ad2c4"/><line x1="1058.8235294117646" y1="176.47058823529412" x2="1147.0588235294117" y2="88.23529411764706" stroke-linecap="square" stroke-width="1" stroke="#2ed4c6"/><line x1="1147.0588235294117" y1="88.23529411764706" x2="1235.2941176470588" y2="176.47058823529412" stroke-linecap="square" stroke-width="1" stroke="#32d6c9"/><line x1="1235.2941176470588" y1="176.47058823529412" x2="1323.5294117647059" y2="88.23529411764706" stroke-linecap="square" stroke-width="1" stroke="#35d8cc"/><line x1="1323.5294117647059" y1="88.23529411764706" x2="1411.764705882353" y2="176.47058823529412" stroke-linecap="square" stroke-width="1" stroke="#39d9ce"/><line x1="1411.764705882353" y1="88.23529411764706" x2="1500" y2="176.47058823529412" stroke-linecap="square" stroke-width="1" stroke="#3ddbd1"/><line x1="0" y1="176.47058823529412" x2="88.23529411764706" y2="264.70588235294116" stroke-linecap="square" stroke-width="1" stroke="#00bfa6"/><line x1="88.23529411764706" y1="264.70588235294116" x2="176.47058823529412" y2="176.47058823529412" stroke-linecap="square" stroke-width="1" stroke="#04c1a9"/><line x1="176.47058823529412" y1="264.70588235294116" x2="264.70588235294116" y2="176.47058823529412" stroke-linecap="square" stroke-width="1" stroke="#08c3ab"/><line x1="264.70588235294116" y1="176.47058823529412" x2="352.94117647058823" y2="264.70588235294116" stroke-linecap="square" stroke-width="1" stroke="#0bc4ae"/><line x1="352.94117647058823" y1="264.70588235294116" x2="441.1764705882353" y2="176.47058823529412" stroke-linecap="square" stroke-width="1" stroke="#0fc6b1"/><line x1="441.1764705882353" y1="176.47058823529412" x2="529.4117647058823" y2="264.70588235294116" stroke-linecap="square" stroke-width="1" stroke="#13c8b3"/><line x1="529.4117647058823" y1="176.47058823529412" x2="617.6470588235294" y2="264.70588235294116" stroke-linecap="square" stroke-width="1" stroke="#17cab6"/><line x1="617.6470588235294" y1="176.47058823529412" x2="705.8823529411765" y2="264.70588235294116" stroke-linecap="square" stroke-width="1" stroke="#1bcbb9"/><line x1="705.8823529411765" y1="176.47058823529412" x2="794.1176470588235" y2="264.70588235294116" stroke-linecap="square" stroke-width="1" stroke="#1fcdbc"/><line x1="794.1176470588235" y1="264.70588235294116" x2="882.3529411764706" y2="176.47058823529412" stroke-linecap="square" stroke-width="1" stroke="#22cfbe"/><line x1="882.3529411764706" y1="176.47058823529412" x2="970.5882352941177" y2="264.70588235294116" stroke-linecap="square" stroke-width="1" stroke="#26d1c1"/><line x1="970.5882352941177" y1="176.47058823529412" x2="1058.8235294117646" y2="264.70588235294116" stroke-linecap="square" stroke-width="1" stroke="#2ad2c4"/><line x1="1058.8235294117646" y1="176.47058823529412" x2="1147.0588235294117" y2="264.70588235294116" stroke-linecap="square" stroke-width="1" stroke="#2ed4c6"/><line x1="1147.0588235294117" y1="176.47058823529412" x2="1235.2941176470588" y2="264.70588235294116" stroke-linecap="square" stroke-width="1" stroke="#32d6c9"/><line x1="1235.2941176470588" y1="176.47058823529412" x2="1323.5294117647059" y2="264.70588235294116" stroke-linecap="square" stroke-width="1" stroke="#35d8cc"/><line x1="1323.5294117647059" y1="176.47058823529412" x2="1411.764705882353" y2="264.70588235294116" stroke-linecap="square" stroke-width="1" stroke="#39d9ce"/><line x1="1411.764705882353" y1="176.47058823529412" x2="1500" y2="264.70588235294116" stroke-linecap="square" stroke-width="1" stroke="#3ddbd1"/><line x1="0" y1="264.70588235294116" x2="88.23529411764706" y2="352.94117647058823" stroke-linecap="square" stroke-width="1" stroke="#00bfa6"/><line x1="88.23529411764706" y1="264.70588235294116" x2="176.47058823529412" y2="352.94117647058823" stroke-linecap="square" stroke-width="1" stroke="#04c1a9"/><line x1="176.47058823529412" y1="352.94117647058823" x2="264.70588235294116" y2="264.70588235294116" stroke-linecap="square" stroke-width="1" stroke="#08c3ab"/><line x1="264.70588235294116" y1="352.94117647058823" x2="352.94117647058823" y2="264.70588235294116" stroke-linecap="square" stroke-width="1" stroke="#0bc4ae"/><line x1="352.94117647058823" y1="264.70588235294116" x2="441.1764705882353" y2="352.94117647058823" stroke-linecap="square" stroke-width="1" stroke="#0fc6b1"/><line x1="441.1764705882353" y1="264.70588235294116" x2="529.4117647058823" y2="352.94117647058823" stroke-linecap="square" stroke-width="1" stroke="#13c8b3"/><line x1="529.4117647058823" y1="264.70588235294116" x2="617.6470588235294" y2="352.94117647058823" stroke-linecap="square" stroke-width="1" stroke="#17cab6"/><line x1="617.6470588235294" y1="352.94117647058823" x2="705.8823529411765" y2="264.70588235294116" stroke-linecap="square" stroke-width="1" stroke="#1bcbb9"/><line x1="705.8823529411765" y1="352.94117647058823" x2="794.1176470588235" y2="264.70588235294116" stroke-linecap="square" stroke-width="1" stroke="#1fcdbc"/><line x1="794.1176470588235" y1="352.94117647058823" x2="882.3529411764706" y2="264.70588235294116" stroke-linecap="square" stroke-width="1" stroke="#22cfbe"/><line x1="882.3529411764706" y1="352.94117647058823" x2="970.5882352941177" y2="264.70588235294116" stroke-linecap="square" stroke-width="1" stroke="#26d1c1"/><line x1="970.5882352941177" y1="352.94117647058823" x2="1058.8235294117646" y2="264.70588235294116" stroke-linecap="square" stroke-width="1" stroke="#2ad2c4"/><line x1="1058.8235294117646" y1="264.70588235294116" x2="1147.0588235294117" y2="352.94117647058823" stroke-linecap="square" stroke-width="1" stroke="#2ed4c6"/><line x1="1147.0588235294117" y1="264.70588235294116" x2="1235.2941176470588" y2="352.94117647058823" stroke-linecap="square" stroke-width="1" stroke="#32d6c9"/><line x1="1235.2941176470588" y1="264.70588235294116" x2="1323.5294117647059" y2="352.94117647058823" stroke-linecap="square" stroke-width="1" stroke="#35d8cc"/><line x1="1323.5294117647059" y1="264.70588235294116" x2="1411.764705882353" y2="352.94117647058823" stroke-linecap="square" stroke-width="1" stroke="#39d9ce"/><line x1="1411.764705882353" y1="264.70588235294116" x2="1500" y2="352.94117647058823" stroke-linecap="square" stroke-width="1" stroke="#3ddbd1"/><line x1="0" y1="441.1764705882353" x2="88.23529411764706" y2="352.94117647058823" stroke-linecap="square" stroke-width="1" stroke="#00bfa6"/><line x1="88.23529411764706" y1="441.1764705882353" x2="176.47058823529412" y2="352.94117647058823" stroke-linecap="square" stroke-width="1" stroke="#04c1a9"/><line x1="176.47058823529412" y1="441.1764705882353" x2="264.70588235294116" y2="352.94117647058823" stroke-linecap="square" stroke-width="1" stroke="#08c3ab"/><line x1="264.70588235294116" y1="352.94117647058823" x2="352.94117647058823" y2="441.1764705882353" stroke-linecap="square" stroke-width="1" stroke="#0bc4ae"/><line x1="352.94117647058823" y1="352.94117647058823" x2="441.1764705882353" y2="441.1764705882353" stroke-linecap="square" stroke-width="1" stroke="#0fc6b1"/><line x1="441.1764705882353" y1="441.1764705882353" x2="529.4117647058823" y2="352.94117647058823" stroke-linecap="square" stroke-width="1" stroke="#13c8b3"/><line x1="529.4117647058823" y1="441.1764705882353" x2="617.6470588235294" y2="352.94117647058823" stroke-linecap="square" stroke-width="1" stroke="#17cab6"/><line x1="617.6470588235294" y1="441.1764705882353" x2="705.8823529411765" y2="352.94117647058823" stroke-linecap="square" stroke-width="1" stroke="#1bcbb9"/><line x1="705.8823529411765" y1="352.94117647058823" x2="794.1176470588235" y2="441.1764705882353" stroke-linecap="square" stroke-width="1" stroke="#1fcdbc"/><line x1="794.1176470588235" y1="352.94117647058823" x2="882.3529411764706" y2="441.1764705882353" stroke-linecap="square" stroke-width="1" stroke="#22cfbe"/><line x1="882.3529411764706" y1="441.1764705882353" x2="970.5882352941177" y2="352.94117647058823" stroke-linecap="square" stroke-width="1" stroke="#26d1c1"/><line x1="970.5882352941177" y1="352.94117647058823" x2="1058.8235294117646" y2="441.1764705882353" stroke-linecap="square" stroke-width="1" stroke="#2ad2c4"/><line x1="1058.8235294117646" y1="352.94117647058823" x2="1147.0588235294117" y2="441.1764705882353" stroke-linecap="square" stroke-width="1" stroke="#2ed4c6"/><line x1="1147.0588235294117" y1="441.1764705882353" x2="1235.2941176470588" y2="352.94117647058823" stroke-linecap="square" stroke-width="1" stroke="#32d6c9"/><line x1="1235.2941176470588" y1="441.1764705882353" x2="1323.5294117647059" y2="352.94117647058823" stroke-linecap="square" stroke-width="1" stroke="#35d8cc"/><line x1="1323.5294117647059" y1="441.1764705882353" x2="1411.764705882353" y2="352.94117647058823" stroke-linecap="square" stroke-width="1" stroke="#39d9ce"/><line x1="1411.764705882353" y1="441.1764705882353" x2="1500" y2="352.94117647058823" stroke-linecap="square" stroke-width="1" stroke="#3ddbd1"/><line x1="0" y1="441.1764705882353" x2="88.23529411764706" y2="529.4117647058823" stroke-linecap="square" stroke-width="1" stroke="#00bfa6"/><line x1="88.23529411764706" y1="441.1764705882353" x2="176.47058823529412" y2="529.4117647058823" stroke-linecap="square" stroke-width="1" stroke="#04c1a9"/><line x1="176.47058823529412" y1="529.4117647058823" x2="264.70588235294116" y2="441.1764705882353" stroke-linecap="square" stroke-width="1" stroke="#08c3ab"/><line x1="264.70588235294116" y1="529.4117647058823" x2="352.94117647058823" y2="441.1764705882353" stroke-linecap="square" stroke-width="1" stroke="#0bc4ae"/><line x1="352.94117647058823" y1="529.4117647058823" x2="441.1764705882353" y2="441.1764705882353" stroke-linecap="square" stroke-width="1" stroke="#0fc6b1"/><line x1="441.1764705882353" y1="441.1764705882353" x2="529.4117647058823" y2="529.4117647058823" stroke-linecap="square" stroke-width="1" stroke="#13c8b3"/><line x1="529.4117647058823" y1="441.1764705882353" x2="617.6470588235294" y2="529.4117647058823" stroke-linecap="square" stroke-width="1" stroke="#17cab6"/><line x1="617.6470588235294" y1="529.4117647058823" x2="705.8823529411765" y2="441.1764705882353" stroke-linecap="square" stroke-width="1" stroke="#1bcbb9"/><line x1="705.8823529411765" y1="529.4117647058823" x2="794.1176470588235" y2="441.1764705882353" stroke-linecap="square" stroke-width="1" stroke="#1fcdbc"/><line x1="794.1176470588235" y1="441.1764705882353" x2="882.3529411764706" y2="529.4117647058823" stroke-linecap="square" stroke-width="1" stroke="#22cfbe"/><line x1="882.3529411764706" y1="529.4117647058823" x2="970.5882352941177" y2="441.1764705882353" stroke-linecap="square" stroke-width="1" stroke="#26d1c1"/><line x1="970.5882352941177" y1="529.4117647058823" x2="1058.8235294117646" y2="441.1764705882353" stroke-linecap="square" stroke-width="1" stroke="#2ad2c4"/><line x1="1058.8235294117646" y1="529.4117647058823" x2="1147.0588235294117" y2="441.1764705882353" stroke-linecap="square" stroke-width="1" stroke="#2ed4c6"/><line x1="1147.0588235294117" y1="529.4117647058823" x2="1235.2941176470588" y2="441.1764705882353" stroke-linecap="square" stroke-width="1" stroke="#32d6c9"/><line x1="1235.2941176470588" y1="529.4117647058823" x2="1323.5294117647059" y2="441.1764705882353" stroke-linecap="square" stroke-width="1" stroke="#35d8cc"/><line x1="1323.5294117647059" y1="441.1764705882353" x2="1411.764705882353" y2="529.4117647058823" stroke-linecap="square" stroke-width="1" stroke="#39d9ce"/><line x1="1411.764705882353" y1="529.4117647058823" x2="1500" y2="441.1764705882353" stroke-linecap="square" stroke-width="1" stroke="#3ddbd1"/><line x1="0" y1="617.6470588235294" x2="88.23529411764706" y2="529.4117647058823" stroke-linecap="square" stroke-width="1" stroke="#00bfa6"/><line x1="88.23529411764706" y1="617.6470588235294" x2="176.47058823529412" y2="529.4117647058823" stroke-linecap="square" stroke-width="1" stroke="#04c1a9"/><line x1="176.47058823529412" y1="617.6470588235294" x2="264.70588235294116" y2="529.4117647058823" stroke-linecap="square" stroke-width="1" stroke="#08c3ab"/><line x1="264.70588235294116" y1="529.4117647058823" x2="352.94117647058823" y2="617.6470588235294" stroke-linecap="square" stroke-width="1" stroke="#0bc4ae"/><line x1="352.94117647058823" y1="617.6470588235294" x2="441.1764705882353" y2="529.4117647058823" stroke-linecap="square" stroke-width="1" stroke="#0fc6b1"/><line x1="441.1764705882353" y1="617.6470588235294" x2="529.4117647058823" y2="529.4117647058823" stroke-linecap="square" stroke-width="1" stroke="#13c8b3"/><line x1="529.4117647058823" y1="529.4117647058823" x2="617.6470588235294" y2="617.6470588235294" stroke-linecap="square" stroke-width="1" stroke="#17cab6"/><line x1="617.6470588235294" y1="529.4117647058823" x2="705.8823529411765" y2="617.6470588235294" stroke-linecap="square" stroke-width="1" stroke="#1bcbb9"/><line x1="705.8823529411765" y1="529.4117647058823" x2="794.1176470588235" y2="617.6470588235294" stroke-linecap="square" stroke-width="1" stroke="#1fcdbc"/><line x1="794.1176470588235" y1="617.6470588235294" x2="882.3529411764706" y2="529.4117647058823" stroke-linecap="square" stroke-width="1" stroke="#22cfbe"/><line x1="882.3529411764706" y1="617.6470588235294" x2="970.5882352941177" y2="529.4117647058823" stroke-linecap="square" stroke-width="1" stroke="#26d1c1"/><line x1="970.5882352941177" y1="529.4117647058823" x2="1058.8235294117646" y2="617.6470588235294" stroke-linecap="square" stroke-width="1" stroke="#2ad2c4"/><line x1="1058.8235294117646" y1="529.4117647058823" x2="1147.0588235294117" y2="617.6470588235294" stroke-linecap="square" stroke-width="1" stroke="#2ed4c6"/><line x1="1147.0588235294117" y1="529.4117647058823" x2="1235.2941176470588" y2="617.6470588235294" stroke-linecap="square" stroke-width="1" stroke="#32d6c9"/><line x1="1235.2941176470588" y1="617.6470588235294" x2="1323.5294117647059" y2="529.4117647058823" stroke-linecap="square" stroke-width="1" stroke="#35d8cc"/><line x1="1323.5294117647059" y1="529.4117647058823" x2="1411.764705882353" y2="617.6470588235294" stroke-linecap="square" stroke-width="1" stroke="#39d9ce"/><line x1="1411.764705882353" y1="529.4117647058823" x2="1500" y2="617.6470588235294" stroke-linecap="square" stroke-width="1" stroke="#3ddbd1"/><line x1="0" y1="617.6470588235294" x2="88.23529411764706" y2="705.8823529411765" stroke-linecap="square" stroke-width="1" stroke="#00bfa6"/><line x1="88.23529411764706" y1="705.8823529411765" x2="176.47058823529412" y2="617.6470588235294" stroke-linecap="square" stroke-width="1" stroke="#04c1a9"/><line x1="176.47058823529412" y1="617.6470588235294" x2="264.70588235294116" y2="705.8823529411765" stroke-linecap="square" stroke-width="1" stroke="#08c3ab"/><line x1="264.70588235294116" y1="705.8823529411765" x2="352.94117647058823" y2="617.6470588235294" stroke-linecap="square" stroke-width="1" stroke="#0bc4ae"/><line x1="352.94117647058823" y1="617.6470588235294" x2="441.1764705882353" y2="705.8823529411765" stroke-linecap="square" stroke-width="1" stroke="#0fc6b1"/><line x1="441.1764705882353" y1="705.8823529411765" x2="529.4117647058823" y2="617.6470588235294" stroke-linecap="square" stroke-width="1" stroke="#13c8b3"/><line x1="529.4117647058823" y1="705.8823529411765" x2="617.6470588235294" y2="617.6470588235294" stroke-linecap="square" stroke-width="1" stroke="#17cab6"/><line x1="617.6470588235294" y1="705.8823529411765" x2="705.8823529411765" y2="617.6470588235294" stroke-linecap="square" stroke-width="1" stroke="#1bcbb9"/><line x1="705.8823529411765" y1="705.8823529411765" x2="794.1176470588235" y2="617.6470588235294" stroke-linecap="square" stroke-width="1" stroke="#1fcdbc"/><line x1="794.1176470588235" y1="705.8823529411765" x2="882.3529411764706" y2="617.6470588235294" stroke-linecap="square" stroke-width="1" stroke="#22cfbe"/><line x1="882.3529411764706" y1="617.6470588235294" x2="970.5882352941177" y2="705.8823529411765" stroke-linecap="square" stroke-width="1" stroke="#26d1c1"/><line x1="970.5882352941177" y1="617.6470588235294" x2="1058.8235294117646" y2="705.8823529411765" stroke-linecap="square" stroke-width="1" stroke="#2ad2c4"/><line x1="1058.8235294117646" y1="705.8823529411765" x2="1147.0588235294117" y2="617.6470588235294" stroke-linecap="square" stroke-width="1" stroke="#2ed4c6"/><line x1="1147.0588235294117" y1="617.6470588235294" x2="1235.2941176470588" y2="705.8823529411765" stroke-linecap="square" stroke-width="1" stroke="#32d6c9"/><line x1="1235.2941176470588" y1="705.8823529411765" x2="1323.5294117647059" y2="617.6470588235294" stroke-linecap="square" stroke-width="1" stroke="#35d8cc"/><line x1="1323.5294117647059" y1="705.8823529411765" x2="1411.764705882353" y2="617.6470588235294" stroke-linecap="square" stroke-width="1" stroke="#39d9ce"/><line x1="1411.764705882353" y1="617.6470588235294" x2="1500" y2="705.8823529411765" stroke-linecap="square" stroke-width="1" stroke="#3ddbd1"/><line x1="0" y1="794.1176470588235" x2="88.23529411764706" y2="705.8823529411765" stroke-linecap="square" stroke-width="1" stroke="#00bfa6"/><line x1="88.23529411764706" y1="794.1176470588235" x2="176.47058823529412" y2="705.8823529411765" stroke-linecap="square" stroke-width="1" stroke="#04c1a9"/><line x1="176.47058823529412" y1="705.8823529411765" x2="264.70588235294116" y2="794.1176470588235" stroke-linecap="square" stroke-width="1" stroke="#08c3ab"/><line x1="264.70588235294116" y1="794.1176470588235" x2="352.94117647058823" y2="705.8823529411765" stroke-linecap="square" stroke-width="1" stroke="#0bc4ae"/><line x1="352.94117647058823" y1="705.8823529411765" x2="441.1764705882353" y2="794.1176470588235" stroke-linecap="square" stroke-width="1" stroke="#0fc6b1"/><line x1="441.1764705882353" y1="705.8823529411765" x2="529.4117647058823" y2="794.1176470588235" stroke-linecap="square" stroke-width="1" stroke="#13c8b3"/><line x1="529.4117647058823" y1="794.1176470588235" x2="617.6470588235294" y2="705.8823529411765" stroke-linecap="square" stroke-width="1" stroke="#17cab6"/><line x1="617.6470588235294" y1="794.1176470588235" x2="705.8823529411765" y2="705.8823529411765" stroke-linecap="square" stroke-width="1" stroke="#1bcbb9"/><line x1="705.8823529411765" y1="794.1176470588235" x2="794.1176470588235" y2="705.8823529411765" stroke-linecap="square" stroke-width="1" stroke="#1fcdbc"/><line x1="794.1176470588235" y1="794.1176470588235" x2="882.3529411764706" y2="705.8823529411765" stroke-linecap="square" stroke-width="1" stroke="#22cfbe"/><line x1="882.3529411764706" y1="794.1176470588235" x2="970.5882352941177" y2="705.8823529411765" stroke-linecap="square" stroke-width="1" stroke="#26d1c1"/><line x1="970.5882352941177" y1="794.1176470588235" x2="1058.8235294117646" y2="705.8823529411765" stroke-linecap="square" stroke-width="1" stroke="#2ad2c4"/><line x1="1058.8235294117646" y1="794.1176470588235" x2="1147.0588235294117" y2="705.8823529411765" stroke-linecap="square" stroke-width="1" stroke="#2ed4c6"/><line x1="1147.0588235294117" y1="705.8823529411765" x2="1235.2941176470588" y2="794.1176470588235" stroke-linecap="square" stroke-width="1" stroke="#32d6c9"/><line x1="1235.2941176470588" y1="705.8823529411765" x2="1323.5294117647059" y2="794.1176470588235" stroke-linecap="square" stroke-width="1" stroke="#35d8cc"/><line x1="1323.5294117647059" y1="705.8823529411765" x2="1411.764705882353" y2="794.1176470588235" stroke-linecap="square" stroke-width="1" stroke="#39d9ce"/><line x1="1411.764705882353" y1="705.8823529411765" x2="1500" y2="794.1176470588235" stroke-linecap="square" stroke-width="1" stroke="#3ddbd1"/><line x1="0" y1="794.1176470588235" x2="88.23529411764706" y2="882.3529411764706" stroke-linecap="square" stroke-width="1" stroke="#00bfa6"/><line x1="88.23529411764706" y1="882.3529411764706" x2="176.47058823529412" y2="794.1176470588235" stroke-linecap="square" stroke-width="1" stroke="#04c1a9"/><line x1="176.47058823529412" y1="794.1176470588235" x2="264.70588235294116" y2="882.3529411764706" stroke-linecap="square" stroke-width="1" stroke="#08c3ab"/><line x1="264.70588235294116" y1="794.1176470588235" x2="352.94117647058823" y2="882.3529411764706" stroke-linecap="square" stroke-width="1" stroke="#0bc4ae"/><line x1="352.94117647058823" y1="882.3529411764706" x2="441.1764705882353" y2="794.1176470588235" stroke-linecap="square" stroke-width="1" stroke="#0fc6b1"/><line x1="441.1764705882353" y1="882.3529411764706" x2="529.4117647058823" y2="794.1176470588235" stroke-linecap="square" stroke-width="1" stroke="#13c8b3"/><line x1="529.4117647058823" y1="794.1176470588235" x2="617.6470588235294" y2="882.3529411764706" stroke-linecap="square" stroke-width="1" stroke="#17cab6"/><line x1="617.6470588235294" y1="794.1176470588235" x2="705.8823529411765" y2="882.3529411764706" stroke-linecap="square" stroke-width="1" stroke="#1bcbb9"/><line x1="705.8823529411765" y1="882.3529411764706" x2="794.1176470588235" y2="794.1176470588235" stroke-linecap="square" stroke-width="1" stroke="#1fcdbc"/><line x1="794.1176470588235" y1="882.3529411764706" x2="882.3529411764706" y2="794.1176470588235" stroke-linecap="square" stroke-width="1" stroke="#22cfbe"/><line x1="882.3529411764706" y1="882.3529411764706" x2="970.5882352941177" y2="794.1176470588235" stroke-linecap="square" stroke-width="1" stroke="#26d1c1"/><line x1="970.5882352941177" y1="882.3529411764706" x2="1058.8235294117646" y2="794.1176470588235" stroke-linecap="square" stroke-width="1" stroke="#2ad2c4"/><line x1="1058.8235294117646" y1="882.3529411764706" x2="1147.0588235294117" y2="794.1176470588235" stroke-linecap="square" stroke-width="1" stroke="#2ed4c6"/><line x1="1147.0588235294117" y1="794.1176470588235" x2="1235.2941176470588" y2="882.3529411764706" stroke-linecap="square" stroke-width="1" stroke="#32d6c9"/><line x1="1235.2941176470588" y1="794.1176470588235" x2="1323.5294117647059" y2="882.3529411764706" stroke-linecap="square" stroke-width="1" stroke="#35d8cc"/><line x1="1323.5294117647059" y1="794.1176470588235" x2="1411.764705882353" y2="882.3529411764706" stroke-linecap="square" stroke-width="1" stroke="#39d9ce"/><line x1="1411.764705882353" y1="794.1176470588235" x2="1500" y2="882.3529411764706" stroke-linecap="square" stroke-width="1" stroke="#3ddbd1"/></svg>