<svg id="canvas" height="auto" xmlns="http://www.w3.org/2000/svg" version="1.1" xmlns:xlink="http://www.w3.org/1999/xlink" viewBox="0 0 2000 1000" width="auto" style="width: auto; height: auto;"><rect width="2000" height="1000" fill="#1e1e1e"/><line x1="0" y1="0" x2="133.33333333333334" y2="133.33333333333334" stroke-linecap="square" stroke-width="2" stroke="#e1c16b"/><line x1="133.33333333333334" y1="0" x2="266.6666666666667" y2="133.33333333333334" stroke-linecap="square" stroke-width="2" stroke="#e0c067"/><line x1="266.6666666666667" y1="0" x2="400" y2="133.33333333333334" stroke-linecap="square" stroke-width="2" stroke="#dfbe64"/><line x1="400" y1="133.33333333333334" x2="533.3333333333334" y2="0" stroke-linecap="square" stroke-width="2" stroke="#debd60"/><line x1="533.3333333333334" y1="0" x2="666.6666666666667" y2="133.33333333333334" stroke-linecap="square" stroke-width="2" stroke="#ddbc5c"/><line x1="666.6666666666667" y1="133.33333333333334" x2="800.0000000000001" y2="0" stroke-linecap="square" stroke-width="2" stroke="#dcbb58"/><line x1="800.0000000000001" y1="0" x2="933.3333333333335" y2="133.33333333333334" stroke-linecap="square" stroke-width="2" stroke="#dbb955"/><line x1="933.3333333333335" y1="0" x2="1066.6666666666667" y2="133.33333333333334" stroke-linecap="square" stroke-width="2" stroke="#dbb851"/><line x1="1066.6666666666667" y1="0" x2="1200" y2="133.33333333333334" stroke-linecap="square" stroke-width="2" stroke="#dab74d"/><line x1="1200" y1="0" x2="1333.3333333333333" y2="133.33333333333334" stroke-linecap="square" stroke-width="2" stroke="#d9b54a"/><line x1="1333.3333333333333" y1="133.33333333333334" x2="1466.6666666666665" y2="0" stroke-linecap="square" stroke-width="2" stroke="#d8b446"/><line x1="1466.6666666666665" y1="0" x2="1599.9999999999998" y2="133.33333333333334" stroke-linecap="square" stroke-width="2" stroke="#d7b342"/><line x1="1599.9999999999998" y1="133.33333333333334" x2="1733.333333333333" y2="0" stroke-linecap="square" stroke-width="2" stroke="#d6b23e"/><line x1="1733.333333333333" y1="0" x2="1866.6666666666663" y2="133.33333333333334" stroke-linecap="square" stroke-width="2" stroke="#d5b03b"/><line x1="1866.6666666666663" y1="0" x2="1999.9999999999995" y2="133.33333333333334" stroke-linecap="square" stroke-width="2" stroke="#d4af37"/><line x1="1999.9999999999995" y1="0" x2="2133.333333333333" y2="133.33333333333334" stroke-linecap="square" stroke-width="2"/><line x1="0" y1="133.33333333333334" x2="133.33333333333334" y2="266.6666666666667" stroke-linecap="square" stroke-width="2" stroke="#e1c16b"/><line x1="133.33333333333334" y1="133.33333333333334" x2="266.6666666666667" y2="266.6666666666667" stroke-linecap="square" stroke-width="2" stroke="#e0c067"/><line x1="266.6666666666667" y1="266.6666666666667" x2="400" y2="133.33333333333334" stroke-linecap="square" stroke-width="2" stroke="#dfbe64"/><line x1="400" y1="266.6666666666667" x2="533.3333333333334" y2="133.33333333333334" stroke-linecap="square" stroke-width="2" stroke="#debd60"/><line x1="533.3333333333334" y1="133.33333333333334" x2="666.6666666666667" y2="266.6666666666667" stroke-linecap="square" stroke-width="2" stroke="#ddbc5c"/><line x1="666.6666666666667" y1="266.6666666666667" x2="800.0000000000001" y2="133.33333333333334" stroke-linecap="square" stroke-width="2" stroke="#dcbb58"/><line x1="800.0000000000001" y1="133.33333333333334" x2="933.3333333333335" y2="266.6666666666667" stroke-linecap="square" stroke-width="2" stroke="#dbb955"/><line x1="933.3333333333335" y1="133.33333333333334" x2="1066.6666666666667" y2="266.6666666666667" stroke-linecap="square" stroke-width="2" stroke="#dbb851"/><line x1="1066.6666666666667" y1="266.6666666666667" x2="1200" y2="133.33333333333334" stroke-linecap="square" stroke-width="2" stroke="#dab74d"/><line x1="1200" y1="266.6666666666667" x2="1333.3333333333333" y2="133.33333333333334" stroke-linecap="square" stroke-width="2" stroke="#d9b54a"/><line x1="1333.3333333333333" y1="266.6666666666667" x2="1466.6666666666665" y2="133.33333333333334" stroke-linecap="square" stroke-width="2" stroke="#d8b446"/><line x1="1466.6666666666665" y1="266.6666666666667" x2="1599.9999999999998" y2="133.33333333333334" stroke-linecap="square" stroke-width="2" stroke="#d7b342"/><line x1="1599.9999999999998" y1="266.6666666666667" x2="1733.333333333333" y2="133.33333333333334" stroke-linecap="square" stroke-width="2" stroke="#d6b23e"/><line x1="1733.333333333333" y1="266.6666666666667" x2="1866.6666666666663" y2="133.33333333333334" stroke-linecap="square" stroke-width="2" stroke="#d5b03b"/><line x1="1866.6666666666663" y1="133.33333333333334" x2="1999.9999999999995" y2="266.6666666666667" stroke-linecap="square" stroke-width="2" stroke="#d4af37"/><line x1="1999.9999999999995" y1="266.6666666666667" x2="2133.333333333333" y2="133.33333333333334" stroke-linecap="square" stroke-width="2"/><line x1="0" y1="400" x2="133.33333333333334" y2="266.6666666666667" stroke-linecap="square" stroke-width="2" stroke="#e1c16b"/><line x1="133.33333333333334" y1="266.6666666666667" x2="266.6666666666667" y2="400" stroke-linecap="square" stroke-width="2" stroke="#e0c067"/><line x1="266.6666666666667" y1="266.6666666666667" x2="400" y2="400" stroke-linecap="square" stroke-width="2" stroke="#dfbe64"/><line x1="400" y1="400" x2="533.3333333333334" y2="266.6666666666667" stroke-linecap="square" stroke-width="2" stroke="#debd60"/><line x1="533.3333333333334" y1="266.6666666666667" x2="666.6666666666667" y2="400" stroke-linecap="square" stroke-width="2" stroke="#ddbc5c"/><line x1="666.6666666666667" y1="266.6666666666667" x2="800.0000000000001" y2="400" stroke-linecap="square" stroke-width="2" stroke="#dcbb58"/><line x1="800.0000000000001" y1="266.6666666666667" x2="933.3333333333335" y2="400" stroke-linecap="square" stroke-width="2" stroke="#dbb955"/><line x1="933.3333333333335" y1="266.6666666666667" x2="1066.6666666666667" y2="400" stroke-linecap="square" stroke-width="2" stroke="#dbb851"/><line x1="1066.6666666666667" y1="266.6666666666667" x2="1200" y2="400" stroke-linecap="square" stroke-width="2" stroke="#dab74d"/><line x1="1200" y1="266.6666666666667" x2="1333.3333333333333" y2="400" stroke-linecap="square" stroke-width="2" stroke="#d9b54a"/><line x1="1333.3333333333333" y1="400" x2="1466.6666666666665" y2="266.6666666666667" stroke-linecap="square" stroke-width="2" stroke="#d8b446"/><line x1="1466.6666666666665" y1="400" x2="1599.9999999999998" y2="266.6666666666667" stroke-linecap="square" stroke-width="2" stroke="#d7b342"/><line x1="1599.9999999999998" y1="400" x2="1733.333333333333" y2="266.6666666666667" stroke-linecap="square" stroke-width="2" stroke="#d6b23e"/><line x1="1733.333333333333" y1="266.6666666666667" x2="1866.6666666666663" y2="400" stroke-linecap="square" stroke-width="2" stroke="#d5b03b"/><line x1="1866.6666666666663" y1="266.6666666666667" x2="1999.9999999999995" y2="400" stroke-linecap="square" stroke-width="2" stroke="#d4af37"/><line x1="1999.9999999999995" y1="400" x2="2133.333333333333" y2="266.6666666666667" stroke-linecap="square" stroke-width="2"/><line x1="0" y1="533.3333333333334" x2="133.33333333333334" y2="400" stroke-linecap="square" stroke-width="2" stroke="#e1c16b"/><line x1="133.33333333333334" y1="400" x2="266.6666666666667" y2="533.3333333333334" stroke-linecap="square" stroke-width="2" stroke="#e0c067"/><line x1="266.6666666666667" y1="400" x2="400" y2="533.3333333333334" stroke-linecap="square" stroke-width="2" stroke="#dfbe64"/><line x1="400" y1="400" x2="533.3333333333334" y2="533.3333333333334" stroke-linecap="square" stroke-width="2" stroke="#debd60"/><line x1="533.3333333333334" y1="400" x2="666.6666666666667" y2="533.3333333333334" stroke-linecap="square" stroke-width="2" stroke="#ddbc5c"/><line x1="666.6666666666667" y1="400" x2="800.0000000000001" y2="533.3333333333334" stroke-linecap="square" stroke-width="2" stroke="#dcbb58"/><line x1="800.0000000000001" y1="400" x2="933.3333333333335" y2="533.3333333333334" stroke-linecap="square" stroke-width="2" stroke="#dbb955"/><line x1="933.3333333333335" y1="400" x2="1066.6666666666667" y2="533.3333333333334" stroke-linecap="square" stroke-width="2" stroke="#dbb851"/><line x1="1066.6666666666667" y1="400" x2="1200" y2="533.3333333333334" stroke-linecap="square" stroke-width="2" stroke="#dab74d"/><line x1="1200" y1="533.3333333333334" x2="1333.3333333333333" y2="400" stroke-linecap="square" stroke-width="2" stroke="#d9b54a"/><line x1="1333.3333333333333" y1="533.3333333333334" x2="1466.6666666666665" y2="400" stroke-linecap="square" stroke-width="2" stroke="#d8b446"/><line x1="1466.6666666666665" y1="533.3333333333334" x2="1599.9999999999998" y2="400" stroke-linecap="square" stroke-width="2" stroke="#d7b342"/><line x1="1599.9999999999998" y1="400" x2="1733.333333333333" y2="533.3333333333334" stroke-linecap="square" stroke-width="2" stroke="#d6b23e"/><line x1="1733.333333333333" y1="533.3333333333334" x2="1866.6666666666663" y2="400" stroke-linecap="square" stroke-width="2" stroke="#d5b03b"/><line x1="1866.6666666666663" y1="400" x2="1999.9999999999995" y2="533.3333333333334" stroke-linecap="square" stroke-width="2" stroke="#d4af37"/><line x1="1999.9999999999995" y1="533.3333333333334" x2="2133.333333333333" y2="400" stroke-linecap="square" stroke-width="2"/><line x1="0" y1="533.3333333333334" x2="133.33333333333334" y2="666.6666666666667" stroke-linecap="square" stroke-width="2" stroke="#e1c16b"/><line x1="133.33333333333334" y1="533.3333333333334" x2="266.6666666666667" y2="666.6666666666667" stroke-linecap="square" stroke-width="2" stroke="#e0c067"/><line x1="266.6666666666667" y1="666.6666666666667" x2="400" y2="533.3333333333334" stroke-linecap="square" stroke-width="2" stroke="#dfbe64"/><line x1="400" y1="533.3333333333334" x2="533.3333333333334" y2="666.6666666666667" stroke-linecap="square" stroke-width="2" stroke="#debd60"/><line x1="533.3333333333334" y1="533.3333333333334" x2="666.6666666666667" y2="666.6666666666667" stroke-linecap="square" stroke-width="2" stroke="#ddbc5c"/><line x1="666.6666666666667" y1="533.3333333333334" x2="800.0000000000001" y2="666.6666666666667" stroke-linecap="square" stroke-width="2" stroke="#dcbb58"/><line x1="800.0000000000001" y1="666.6666666666667" x2="933.3333333333335" y2="533.3333333333334" stroke-linecap="square" stroke-width="2" stroke="#dbb955"/><line x1="933.3333333333335" y1="533.3333333333334" x2="1066.6666666666667" y2="666.6666666666667" stroke-linecap="square" stroke-width="2" stroke="#dbb851"/><line x1="1066.6666666666667" y1="533.3333333333334" x2="1200" y2="666.6666666666667" stroke-linecap="square" stroke-width="2" stroke="#dab74d"/><line x1="1200" y1="533.3333333333334" x2="1333.3333333333333" y2="666.6666666666667" stroke-linecap="square" stroke-width="2" stroke="#d9b54a"/><line x1="1333.3333333333333" y1="666.6666666666667" x2="1466.6666666666665" y2="533.3333333333334" stroke-linecap="square" stroke-width="2" stroke="#d8b446"/><line x1="1466.6666666666665" y1="533.3333333333334" x2="1599.9999999999998" y2="666.6666666666667" stroke-linecap="square" stroke-width="2" stroke="#d7b342"/><line x1="1599.9999999999998" y1="533.3333333333334" x2="1733.333333333333" y2="666.6666666666667" stroke-linecap="square" stroke-width="2" stroke="#d6b23e"/><line x1="1733.333333333333" y1="666.6666666666667" x2="1866.6666666666663" y2="533.3333333333334" stroke-linecap="square" stroke-width="2" stroke="#d5b03b"/><line x1="1866.6666666666663" y1="533.3333333333334" x2="1999.9999999999995" y2="666.6666666666667" stroke-linecap="square" stroke-width="2" stroke="#d4af37"/><line x1="1999.9999999999995" y1="666.6666666666667" x2="2133.333333333333" y2="533.3333333333334" stroke-linecap="square" stroke-width="2"/><line x1="0" y1="666.6666666666667" x2="133.33333333333334" y2="800.0000000000001" stroke-linecap="square" stroke-width="2" stroke="#e1c16b"/><line x1="133.33333333333334" y1="666.6666666666667" x2="266.6666666666667" y2="800.0000000000001" stroke-linecap="square" stroke-width="2" stroke="#e0c067"/><line x1="266.6666666666667" y1="666.6666666666667" x2="400" y2="800.0000000000001" stroke-linecap="square" stroke-width="2" stroke="#dfbe64"/><line x1="400" y1="666.6666666666667" x2="533.3333333333334" y2="800.0000000000001" stroke-linecap="square" stroke-width="2" stroke="#debd60"/><line x1="533.3333333333334" y1="800.0000000000001" x2="666.6666666666667" y2="666.6666666666667" stroke-linecap="square" stroke-width="2" stroke="#ddbc5c"/><line x1="666.6666666666667" y1="666.6666666666667" x2="800.0000000000001" y2="800.0000000000001" stroke-linecap="square" stroke-width="2" stroke="#dcbb58"/><line x1="800.0000000000001" y1="666.6666666666667" x2="933.3333333333335" y2="800.0000000000001" stroke-linecap="square" stroke-width="2" stroke="#dbb955"/><line x1="933.3333333333335" y1="800.0000000000001" x2="1066.6666666666667" y2="666.6666666666667" stroke-linecap="square" stroke-width="2" stroke="#dbb851"/><line x1="1066.6666666666667" y1="800.0000000000001" x2="1200" y2="666.6666666666667" stroke-linecap="square" stroke-width="2" stroke="#dab74d"/><line x1="1200" y1="666.6666666666667" x2="1333.3333333333333" y2="800.0000000000001" stroke-linecap="square" stroke-width="2" stroke="#d9b54a"/><line x1="1333.3333333333333" y1="800.0000000000001" x2="1466.6666666666665" y2="666.6666666666667" stroke-linecap="square" stroke-width="2" stroke="#d8b446"/><line x1="1466.6666666666665" y1="800.0000000000001" x2="1599.9999999999998" y2="666.6666666666667" stroke-linecap="square" stroke-width="2" stroke="#d7b342"/><line x1="1599.9999999999998" y1="800.0000000000001" x2="1733.333333333333" y2="666.6666666666667" stroke-linecap="square" stroke-width="2" stroke="#d6b23e"/><line x1="1733.333333333333" y1="800.0000000000001" x2="1866.6666666666663" y2="666.6666666666667" stroke-linecap="square" stroke-width="2" stroke="#d5b03b"/><line x1="1866.6666666666663" y1="666.6666666666667" x2="1999.9999999999995" y2="800.0000000000001" stroke-linecap="square" stroke-width="2" stroke="#d4af37"/><line x1="1999.9999999999995" y1="800.0000000000001" x2="2133.333333333333" y2="666.6666666666667" stroke-linecap="square" stroke-width="2"/><line x1="0" y1="933.3333333333335" x2="133.33333333333334" y2="800.0000000000001" stroke-linecap="square" stroke-width="2" stroke="#e1c16b"/><line x1="133.33333333333334" y1="933.3333333333335" x2="266.6666666666667" y2="800.0000000000001" stroke-linecap="square" stroke-width="2" stroke="#e0c067"/><line x1="266.6666666666667" y1="800.0000000000001" x2="400" y2="933.3333333333335" stroke-linecap="square" stroke-width="2" stroke="#dfbe64"/><line x1="400" y1="933.3333333333335" x2="533.3333333333334" y2="800.0000000000001" stroke-linecap="square" stroke-width="2" stroke="#debd60"/><line x1="533.3333333333334" y1="933.3333333333335" x2="666.6666666666667" y2="800.0000000000001" stroke-linecap="square" stroke-width="2" stroke="#ddbc5c"/><line x1="666.6666666666667" y1="933.3333333333335" x2="800.0000000000001" y2="800.0000000000001" stroke-linecap="square" stroke-width="2" stroke="#dcbb58"/><line x1="800.0000000000001" y1="800.0000000000001" x2="933.3333333333335" y2="933.3333333333335" stroke-linecap="square" stroke-width="2" stroke="#dbb955"/><line x1="933.3333333333335" y1="800.0000000000001" x2="1066.6666666666667" y2="933.3333333333335" stroke-linecap="square" stroke-width="2" stroke="#dbb851"/><line x1="1066.6666666666667" y1="800.0000000000001" x2="1200" y2="933.3333333333335" stroke-linecap="square" stroke-width="2" stroke="#dab74d"/><line x1="1200" y1="933.3333333333335" x2="1333.3333333333333" y2="800.0000000000001" stroke-linecap="square" stroke-width="2" stroke="#d9b54a"/><line x1="1333.3333333333333" y1="933.3333333333335" x2="1466.6666666666665" y2="800.0000000000001" stroke-linecap="square" stroke-width="2" stroke="#d8b446"/><line x1="1466.6666666666665" y1="933.3333333333335" x2="1599.9999999999998" y2="800.0000000000001" stroke-linecap="square" stroke-width="2" stroke="#d7b342"/><line x1="1599.9999999999998" y1="800.0000000000001" x2="1733.333333333333" y2="933.3333333333335" stroke-linecap="square" stroke-width="2" stroke="#d6b23e"/><line x1="1733.333333333333" y1="800.0000000000001" x2="1866.6666666666663" y2="933.3333333333335" stroke-linecap="square" stroke-width="2" stroke="#d5b03b"/><line x1="1866.6666666666663" y1="933.3333333333335" x2="1999.9999999999995" y2="800.0000000000001" stroke-linecap="square" stroke-width="2" stroke="#d4af37"/><line x1="1999.9999999999995" y1="800.0000000000001" x2="2133.333333333333" y2="933.3333333333335" stroke-linecap="square" stroke-width="2"/><line x1="0" y1="1066.6666666666667" x2="133.33333333333334" y2="933.3333333333335" stroke-linecap="square" stroke-width="2" stroke="#e1c16b"/><line x1="133.33333333333334" y1="933.3333333333335" x2="266.6666666666667" y2="1066.6666666666667" stroke-linecap="square" stroke-width="2" stroke="#e0c067"/><line x1="266.6666666666667" y1="933.3333333333335" x2="400" y2="1066.6666666666667" stroke-linecap="square" stroke-width="2" stroke="#dfbe64"/><line x1="400" y1="1066.6666666666667" x2="533.3333333333334" y2="933.3333333333335" stroke-linecap="square" stroke-width="2" stroke="#debd60"/><line x1="533.3333333333334" y1="1066.6666666666667" x2="666.6666666666667" y2="933.3333333333335" stroke-linecap="square" stroke-width="2" stroke="#ddbc5c"/><line x1="666.6666666666667" y1="1066.6666666666667" x2="800.0000000000001" y2="933.3333333333335" stroke-linecap="square" stroke-width="2" stroke="#dcbb58"/><line x1="800.0000000000001" y1="1066.6666666666667" x2="933.3333333333335" y2="933.3333333333335" stroke-linecap="square" stroke-width="2" stroke="#dbb955"/><line x1="933.3333333333335" y1="1066.6666666666667" x2="1066.6666666666667" y2="933.3333333333335" stroke-linecap="square" stroke-width="2" stroke="#dbb851"/><line x1="1066.6666666666667" y1="1066.6666666666667" x2="1200" y2="933.3333333333335" stroke-linecap="square" stroke-width="2" stroke="#dab74d"/><line x1="1200" y1="933.3333333333335" x2="1333.3333333333333" y2="1066.6666666666667" stroke-linecap="square" stroke-width="2" stroke="#d9b54a"/><line x1="1333.3333333333333" y1="1066.6666666666667" x2="1466.6666666666665" y2="933.3333333333335" stroke-linecap="square" stroke-width="2" stroke="#d8b446"/><line x1="1466.6666666666665" y1="1066.6666666666667" x2="1599.9999999999998" y2="933.3333333333335" stroke-linecap="square" stroke-width="2" stroke="#d7b342"/><line x1="1599.9999999999998" y1="933.3333333333335" x2="1733.333333333333" y2="1066.6666666666667" stroke-linecap="square" stroke-width="2" stroke="#d6b23e"/><line x1="1733.333333333333" y1="1066.6666666666667" x2="1866.6666666666663" y2="933.3333333333335" stroke-linecap="square" stroke-width="2" stroke="#d5b03b"/><line x1="1866.6666666666663" y1="1066.6666666666667" x2="1999.9999999999995" y2="933.3333333333335" stroke-linecap="square" stroke-width="2" stroke="#d4af37"/><line x1="1999.9999999999995" y1="1066.6666666666667" x2="2133.333333333333" y2="933.3333333333335" stroke-linecap="square" stroke-width="2"/></svg>