<svg id="canvas" height="auto" xmlns="http://www.w3.org/2000/svg" version="1.1" xmlns:xlink="http://www.w3.org/1999/xlink" viewBox="0 0 2000 1000" width="auto" style="width: auto; height: auto;"><rect width="2000" height="1000" fill="#d4af37"/><line x1="0" y1="0" x2="105.26315789473684" y2="105.26315789473684" stroke-linecap="square" stroke-width="2" stroke="#b58925"/><line x1="105.26315789473684" y1="0" x2="210.52631578947367" y2="105.26315789473684" stroke-linecap="square" stroke-width="2" stroke="#b78c29"/><line x1="210.52631578947367" y1="0" x2="315.7894736842105" y2="105.26315789473684" stroke-linecap="square" stroke-width="2" stroke="#ba8f2d"/><line x1="315.7894736842105" y1="0" x2="421.05263157894734" y2="105.26315789473684" stroke-linecap="square" stroke-width="2" stroke="#bc9231"/><line x1="421.05263157894734" y1="105.26315789473684" x2="526.3157894736842" y2="0" stroke-linecap="square" stroke-width="2" stroke="#bf9535"/><line x1="526.3157894736842" y1="0" x2="631.578947368421" y2="105.26315789473684" stroke-linecap="square" stroke-width="2" stroke="#c19938"/><line x1="631.578947368421" y1="0" x2="736.8421052631579" y2="105.26315789473684" stroke-linecap="square" stroke-width="2" stroke="#c49c3c"/><line x1="736.8421052631579" y1="105.26315789473684" x2="842.1052631578948" y2="0" stroke-linecap="square" stroke-width="2" stroke="#c69f40"/><line x1="842.1052631578948" y1="0" x2="947.3684210526317" y2="105.26315789473684" stroke-linecap="square" stroke-width="2" stroke="#c9a244"/><line x1="947.3684210526317" y1="105.26315789473684" x2="1052.6315789473686" y2="0" stroke-linecap="square" stroke-width="2" stroke="#cba548"/><line x1="1052.6315789473686" y1="105.26315789473684" x2="1157.8947368421054" y2="0" stroke-linecap="square" stroke-width="2" stroke="#cda84c"/><line x1="1157.8947368421054" y1="0" x2="1263.1578947368423" y2="105.26315789473684" stroke-linecap="square" stroke-width="2" stroke="#d0ab50"/><line x1="1263.1578947368423" y1="105.26315789473684" x2="1368.4210526315792" y2="0" stroke-linecap="square" stroke-width="2" stroke="#d2ae54"/><line x1="1368.4210526315792" y1="105.26315789473684" x2="1473.684210526316" y2="0" stroke-linecap="square" stroke-width="2" stroke="#d5b158"/><line x1="1473.684210526316" y1="0" x2="1578.947368421053" y2="105.26315789473684" stroke-linecap="square" stroke-width="2" stroke="#d7b55b"/><line x1="1578.947368421053" y1="105.26315789473684" x2="1684.2105263157898" y2="0" stroke-linecap="square" stroke-width="2" stroke="#dab85f"/><line x1="1684.2105263157898" y1="0" x2="1789.4736842105267" y2="105.26315789473684" stroke-linecap="square" stroke-width="2" stroke="#dcbb63"/><line x1="1789.4736842105267" y1="0" x2="1894.7368421052636" y2="105.26315789473684" stroke-linecap="square" stroke-width="2" stroke="#dfbe67"/><line x1="1894.7368421052636" y1="0" x2="2000.0000000000005" y2="105.26315789473684" stroke-linecap="square" stroke-width="2" stroke="#e1c16b"/><line x1="0" y1="210.52631578947367" x2="105.26315789473684" y2="105.26315789473684" stroke-linecap="square" stroke-width="2" stroke="#b58925"/><line x1="105.26315789473684" y1="105.26315789473684" x2="210.52631578947367" y2="210.52631578947367" stroke-linecap="square" stroke-width="2" stroke="#b78c29"/><line x1="210.52631578947367" y1="210.52631578947367" x2="315.7894736842105" y2="105.26315789473684" stroke-linecap="square" stroke-width="2" stroke="#ba8f2d"/><line x1="315.7894736842105" y1="105.26315789473684" x2="421.05263157894734" y2="210.52631578947367" stroke-linecap="square" stroke-width="2" stroke="#bc9231"/><line x1="421.05263157894734" y1="105.26315789473684" x2="526.3157894736842" y2="210.52631578947367" stroke-linecap="square" stroke-width="2" stroke="#bf9535"/><line x1="526.3157894736842" y1="105.26315789473684" x2="631.578947368421" y2="210.52631578947367" stroke-linecap="square" stroke-width="2" stroke="#c19938"/><line x1="631.578947368421" y1="210.52631578947367" x2="736.8421052631579" y2="105.26315789473684" stroke-linecap="square" stroke-width="2" stroke="#c49c3c"/><line x1="736.8421052631579" y1="210.52631578947367" x2="842.1052631578948" y2="105.26315789473684" stroke-linecap="square" stroke-width="2" stroke="#c69f40"/><line x1="842.1052631578948" y1="210.52631578947367" x2="947.3684210526317" y2="105.26315789473684" stroke-linecap="square" stroke-width="2" stroke="#c9a244"/><line x1="947.3684210526317" y1="105.26315789473684" x2="1052.6315789473686" y2="210.52631578947367" stroke-linecap="square" stroke-width="2" stroke="#cba548"/><line x1="1052.6315789473686" y1="210.52631578947367" x2="1157.8947368421054" y2="105.26315789473684" stroke-linecap="square" stroke-width="2" stroke="#cda84c"/><line x1="1157.8947368421054" y1="210.52631578947367" x2="1263.1578947368423" y2="105.26315789473684" stroke-linecap="square" stroke-width="2" stroke="#d0ab50"/><line x1="1263.1578947368423" y1="210.52631578947367" x2="1368.4210526315792" y2="105.26315789473684" stroke-linecap="square" stroke-width="2" stroke="#d2ae54"/><line x1="1368.4210526315792" y1="105.26315789473684" x2="1473.684210526316" y2="210.52631578947367" stroke-linecap="square" stroke-width="2" stroke="#d5b158"/><line x1="1473.684210526316" y1="105.26315789473684" x2="1578.947368421053" y2="210.52631578947367" stroke-linecap="square" stroke-width="2" stroke="#d7b55b"/><line x1="1578.947368421053" y1="105.26315789473684" x2="1684.2105263157898" y2="210.52631578947367" stroke-linecap="square" stroke-width="2" stroke="#dab85f"/><line x1="1684.2105263157898" y1="105.26315789473684" x2="1789.4736842105267" y2="210.52631578947367" stroke-linecap="square" stroke-width="2" stroke="#dcbb63"/><line x1="1789.4736842105267" y1="210.52631578947367" x2="1894.7368421052636" y2="105.26315789473684" stroke-linecap="square" stroke-width="2" stroke="#dfbe67"/><line x1="1894.7368421052636" y1="105.26315789473684" x2="2000.0000000000005" y2="210.52631578947367" stroke-linecap="square" stroke-width="2" stroke="#e1c16b"/><line x1="0" y1="315.7894736842105" x2="105.26315789473684" y2="210.52631578947367" stroke-linecap="square" stroke-width="2" stroke="#b58925"/><line x1="105.26315789473684" y1="210.52631578947367" x2="210.52631578947367" y2="315.7894736842105" stroke-linecap="square" stroke-width="2" stroke="#b78c29"/><line x1="210.52631578947367" y1="210.52631578947367" x2="315.7894736842105" y2="315.7894736842105" stroke-linecap="square" stroke-width="2" stroke="#ba8f2d"/><line x1="315.7894736842105" y1="315.7894736842105" x2="421.05263157894734" y2="210.52631578947367" stroke-linecap="square" stroke-width="2" stroke="#bc9231"/><line x1="421.05263157894734" y1="315.7894736842105" x2="526.3157894736842" y2="210.52631578947367" stroke-linecap="square" stroke-width="2" stroke="#bf9535"/><line x1="526.3157894736842" y1="315.7894736842105" x2="631.578947368421" y2="210.52631578947367" stroke-linecap="square" stroke-width="2" stroke="#c19938"/><line x1="631.578947368421" y1="210.52631578947367" x2="736.8421052631579" y2="315.7894736842105" stroke-linecap="square" stroke-width="2" stroke="#c49c3c"/><line x1="736.8421052631579" y1="210.52631578947367" x2="842.1052631578948" y2="315.7894736842105" stroke-linecap="square" stroke-width="2" stroke="#c69f40"/><line x1="842.1052631578948" y1="210.52631578947367" x2="947.3684210526317" y2="315.7894736842105" stroke-linecap="square" stroke-width="2" stroke="#c9a244"/><line x1="947.3684210526317" y1="315.7894736842105" x2="1052.6315789473686" y2="210.52631578947367" stroke-linecap="square" stroke-width="2" stroke="#cba548"/><line x1="1052.6315789473686" y1="315.7894736842105" x2="1157.8947368421054" y2="210.52631578947367" stroke-linecap="square" stroke-width="2" stroke="#cda84c"/><line x1="1157.8947368421054" y1="210.52631578947367" x2="1263.1578947368423" y2="315.7894736842105" stroke-linecap="square" stroke-width="2" stroke="#d0ab50"/><line x1="1263.1578947368423" y1="315.7894736842105" x2="1368.4210526315792" y2="210.52631578947367" stroke-linecap="square" stroke-width="2" stroke="#d2ae54"/><line x1="1368.4210526315792" y1="315.7894736842105" x2="1473.684210526316" y2="210.52631578947367" stroke-linecap="square" stroke-width="2" stroke="#d5b158"/><line x1="1473.684210526316" y1="315.7894736842105" x2="1578.947368421053" y2="210.52631578947367" stroke-linecap="square" stroke-width="2" stroke="#d7b55b"/><line x1="1578.947368421053" y1="210.52631578947367" x2="1684.2105263157898" y2="315.7894736842105" stroke-linecap="square" stroke-width="2" stroke="#dab85f"/><line x1="1684.2105263157898" y1="210.52631578947367" x2="1789.4736842105267" y2="315.7894736842105" stroke-linecap="square" stroke-width="2" stroke="#dcbb63"/><line x1="1789.4736842105267" y1="210.52631578947367" x2="1894.7368421052636" y2="315.7894736842105" stroke-linecap="square" stroke-width="2" stroke="#dfbe67"/><line x1="1894.7368421052636" y1="315.7894736842105" x2="2000.0000000000005" y2="210.52631578947367" stroke-linecap="square" stroke-width="2" stroke="#e1c16b"/><line x1="0" y1="315.7894736842105" x2="105.26315789473684" y2="421.05263157894734" stroke-linecap="square" stroke-width="2" stroke="#b58925"/><line x1="105.26315789473684" y1="315.7894736842105" x2="210.52631578947367" y2="421.05263157894734" stroke-linecap="square" stroke-width="2" stroke="#b78c29"/><line x1="210.52631578947367" y1="315.7894736842105" x2="315.7894736842105" y2="421.05263157894734" stroke-linecap="square" stroke-width="2" stroke="#ba8f2d"/><line x1="315.7894736842105" y1="421.05263157894734" x2="421.05263157894734" y2="315.7894736842105" stroke-linecap="square" stroke-width="2" stroke="#bc9231"/><line x1="421.05263157894734" y1="315.7894736842105" x2="526.3157894736842" y2="421.05263157894734" stroke-linecap="square" stroke-width="2" stroke="#bf9535"/><line x1="526.3157894736842" y1="315.7894736842105" x2="631.578947368421" y2="421.05263157894734" stroke-linecap="square" stroke-width="2" stroke="#c19938"/><line x1="631.578947368421" y1="315.7894736842105" x2="736.8421052631579" y2="421.05263157894734" stroke-linecap="square" stroke-width="2" stroke="#c49c3c"/><line x1="736.8421052631579" y1="315.7894736842105" x2="842.1052631578948" y2="421.05263157894734" stroke-linecap="square" stroke-width="2" stroke="#c69f40"/><line x1="842.1052631578948" y1="421.05263157894734" x2="947.3684210526317" y2="315.7894736842105" stroke-linecap="square" stroke-width="2" stroke="#c9a244"/><line x1="947.3684210526317" y1="315.7894736842105" x2="1052.6315789473686" y2="421.05263157894734" stroke-linecap="square" stroke-width="2" stroke="#cba548"/><line x1="1052.6315789473686" y1="315.7894736842105" x2="1157.8947368421054" y2="421.05263157894734" stroke-linecap="square" stroke-width="2" stroke="#cda84c"/><line x1="1157.8947368421054" y1="315.7894736842105" x2="1263.1578947368423" y2="421.05263157894734" stroke-linecap="square" stroke-width="2" stroke="#d0ab50"/><line x1="1263.1578947368423" y1="421.05263157894734" x2="1368.4210526315792" y2="315.7894736842105" stroke-linecap="square" stroke-width="2" stroke="#d2ae54"/><line x1="1368.4210526315792" y1="315.7894736842105" x2="1473.684210526316" y2="421.05263157894734" stroke-linecap="square" stroke-width="2" stroke="#d5b158"/><line x1="1473.684210526316" y1="315.7894736842105" x2="1578.947368421053" y2="421.05263157894734" stroke-linecap="square" stroke-width="2" stroke="#d7b55b"/><line x1="1578.947368421053" y1="315.7894736842105" x2="1684.2105263157898" y2="421.05263157894734" stroke-linecap="square" stroke-width="2" stroke="#dab85f"/><line x1="1684.2105263157898" y1="421.05263157894734" x2="1789.4736842105267" y2="315.7894736842105" stroke-linecap="square" stroke-width="2" stroke="#dcbb63"/><line x1="1789.4736842105267" y1="421.05263157894734" x2="1894.7368421052636" y2="315.7894736842105" stroke-linecap="square" stroke-width="2" stroke="#dfbe67"/><line x1="1894.7368421052636" y1="421.05263157894734" x2="2000.0000000000005" y2="315.7894736842105" stroke-linecap="square" stroke-width="2" stroke="#e1c16b"/><line x1="0" y1="526.3157894736842" x2="105.26315789473684" y2="421.05263157894734" stroke-linecap="square" stroke-width="2" stroke="#b58925"/><line x1="105.26315789473684" y1="526.3157894736842" x2="210.52631578947367" y2="421.05263157894734" stroke-linecap="square" stroke-width="2" stroke="#b78c29"/><line x1="210.52631578947367" y1="421.05263157894734" x2="315.7894736842105" y2="526.3157894736842" stroke-linecap="square" stroke-width="2" stroke="#ba8f2d"/><line x1="315.7894736842105" y1="421.05263157894734" x2="421.05263157894734" y2="526.3157894736842" stroke-linecap="square" stroke-width="2" stroke="#bc9231"/><line x1="421.05263157894734" y1="526.3157894736842" x2="526.3157894736842" y2="421.05263157894734" stroke-linecap="square" stroke-width="2" stroke="#bf9535"/><line x1="526.3157894736842" y1="526.3157894736842" x2="631.578947368421" y2="421.05263157894734" stroke-linecap="square" stroke-width="2" stroke="#c19938"/><line x1="631.578947368421" y1="421.05263157894734" x2="736.8421052631579" y2="526.3157894736842" stroke-linecap="square" stroke-width="2" stroke="#c49c3c"/><line x1="736.8421052631579" y1="526.3157894736842" x2="842.1052631578948" y2="421.05263157894734" stroke-linecap="square" stroke-width="2" stroke="#c69f40"/><line x1="842.1052631578948" y1="526.3157894736842" x2="947.3684210526317" y2="421.05263157894734" stroke-linecap="square" stroke-width="2" stroke="#c9a244"/><line x1="947.3684210526317" y1="526.3157894736842" x2="1052.6315789473686" y2="421.05263157894734" stroke-linecap="square" stroke-width="2" stroke="#cba548"/><line x1="1052.6315789473686" y1="526.3157894736842" x2="1157.8947368421054" y2="421.05263157894734" stroke-linecap="square" stroke-width="2" stroke="#cda84c"/><line x1="1157.8947368421054" y1="421.05263157894734" x2="1263.1578947368423" y2="526.3157894736842" stroke-linecap="square" stroke-width="2" stroke="#d0ab50"/><line x1="1263.1578947368423" y1="526.3157894736842" x2="1368.4210526315792" y2="421.05263157894734" stroke-linecap="square" stroke-width="2" stroke="#d2ae54"/><line x1="1368.4210526315792" y1="526.3157894736842" x2="1473.684210526316" y2="421.05263157894734" stroke-linecap="square" stroke-width="2" stroke="#d5b158"/><line x1="1473.684210526316" y1="421.05263157894734" x2="1578.947368421053" y2="526.3157894736842" stroke-linecap="square" stroke-width="2" stroke="#d7b55b"/><line x1="1578.947368421053" y1="421.05263157894734" x2="1684.2105263157898" y2="526.3157894736842" stroke-linecap="square" stroke-width="2" stroke="#dab85f"/><line x1="1684.2105263157898" y1="526.3157894736842" x2="1789.4736842105267" y2="421.05263157894734" stroke-linecap="square" stroke-width="2" stroke="#dcbb63"/><line x1="1789.4736842105267" y1="526.3157894736842" x2="1894.7368421052636" y2="421.05263157894734" stroke-linecap="square" stroke-width="2" stroke="#dfbe67"/><line x1="1894.7368421052636" y1="526.3157894736842" x2="2000.0000000000005" y2="421.05263157894734" stroke-linecap="square" stroke-width="2" stroke="#e1c16b"/><line x1="0" y1="631.578947368421" x2="105.26315789473684" y2="526.3157894736842" stroke-linecap="square" stroke-width="2" stroke="#b58925"/><line x1="105.26315789473684" y1="631.578947368421" x2="210.52631578947367" y2="526.3157894736842" stroke-linecap="square" stroke-width="2" stroke="#b78c29"/><line x1="210.52631578947367" y1="526.3157894736842" x2="315.7894736842105" y2="631.578947368421" stroke-linecap="square" stroke-width="2" stroke="#ba8f2d"/><line x1="315.7894736842105" y1="631.578947368421" x2="421.05263157894734" y2="526.3157894736842" stroke-linecap="square" stroke-width="2" stroke="#bc9231"/><line x1="421.05263157894734" y1="526.3157894736842" x2="526.3157894736842" y2="631.578947368421" stroke-linecap="square" stroke-width="2" stroke="#bf9535"/><line x1="526.3157894736842" y1="526.3157894736842" x2="631.578947368421" y2="631.578947368421" stroke-linecap="square" stroke-width="2" stroke="#c19938"/><line x1="631.578947368421" y1="526.3157894736842" x2="736.8421052631579" y2="631.578947368421" stroke-linecap="square" stroke-width="2" stroke="#c49c3c"/><line x1="736.8421052631579" y1="526.3157894736842" x2="842.1052631578948" y2="631.578947368421" stroke-linecap="square" stroke-width="2" stroke="#c69f40"/><line x1="842.1052631578948" y1="526.3157894736842" x2="947.3684210526317" y2="631.578947368421" stroke-linecap="square" stroke-width="2" stroke="#c9a244"/><line x1="947.3684210526317" y1="631.578947368421" x2="1052.6315789473686" y2="526.3157894736842" stroke-linecap="square" stroke-width="2" stroke="#cba548"/><line x1="1052.6315789473686" y1="631.578947368421" x2="1157.8947368421054" y2="526.3157894736842" stroke-linecap="square" stroke-width="2" stroke="#cda84c"/><line x1="1157.8947368421054" y1="631.578947368421" x2="1263.1578947368423" y2="526.3157894736842" stroke-linecap="square" stroke-width="2" stroke="#d0ab50"/><line x1="1263.1578947368423" y1="526.3157894736842" x2="1368.4210526315792" y2="631.578947368421" stroke-linecap="square" stroke-width="2" stroke="#d2ae54"/><line x1="1368.4210526315792" y1="526.3157894736842" x2="1473.684210526316" y2="631.578947368421" stroke-linecap="square" stroke-width="2" stroke="#d5b158"/><line x1="1473.684210526316" y1="631.578947368421" x2="1578.947368421053" y2="526.3157894736842" stroke-linecap="square" stroke-width="2" stroke="#d7b55b"/><line x1="1578.947368421053" y1="631.578947368421" x2="1684.2105263157898" y2="526.3157894736842" stroke-linecap="square" stroke-width="2" stroke="#dab85f"/><line x1="1684.2105263157898" y1="631.578947368421" x2="1789.4736842105267" y2="526.3157894736842" stroke-linecap="square" stroke-width="2" stroke="#dcbb63"/><line x1="1789.4736842105267" y1="631.578947368421" x2="1894.7368421052636" y2="526.3157894736842" stroke-linecap="square" stroke-width="2" stroke="#dfbe67"/><line x1="1894.7368421052636" y1="631.578947368421" x2="2000.0000000000005" y2="526.3157894736842" stroke-linecap="square" stroke-width="2" stroke="#e1c16b"/><line x1="0" y1="736.8421052631579" x2="105.26315789473684" y2="631.578947368421" stroke-linecap="square" stroke-width="2" stroke="#b58925"/><line x1="105.26315789473684" y1="631.578947368421" x2="210.52631578947367" y2="736.8421052631579" stroke-linecap="square" stroke-width="2" stroke="#b78c29"/><line x1="210.52631578947367" y1="736.8421052631579" x2="315.7894736842105" y2="631.578947368421" stroke-linecap="square" stroke-width="2" stroke="#ba8f2d"/><line x1="315.7894736842105" y1="631.578947368421" x2="421.05263157894734" y2="736.8421052631579" stroke-linecap="square" stroke-width="2" stroke="#bc9231"/><line x1="421.05263157894734" y1="736.8421052631579" x2="526.3157894736842" y2="631.578947368421" stroke-linecap="square" stroke-width="2" stroke="#bf9535"/><line x1="526.3157894736842" y1="631.578947368421" x2="631.578947368421" y2="736.8421052631579" stroke-linecap="square" stroke-width="2" stroke="#c19938"/><line x1="631.578947368421" y1="631.578947368421" x2="736.8421052631579" y2="736.8421052631579" stroke-linecap="square" stroke-width="2" stroke="#c49c3c"/><line x1="736.8421052631579" y1="631.578947368421" x2="842.1052631578948" y2="736.8421052631579" stroke-linecap="square" stroke-width="2" stroke="#c69f40"/><line x1="842.1052631578948" y1="631.578947368421" x2="947.3684210526317" y2="736.8421052631579" stroke-linecap="square" stroke-width="2" stroke="#c9a244"/><line x1="947.3684210526317" y1="736.8421052631579" x2="1052.6315789473686" y2="631.578947368421" stroke-linecap="square" stroke-width="2" stroke="#cba548"/><line x1="1052.6315789473686" y1="631.578947368421" x2="1157.8947368421054" y2="736.8421052631579" stroke-linecap="square" stroke-width="2" stroke="#cda84c"/><line x1="1157.8947368421054" y1="736.8421052631579" x2="1263.1578947368423" y2="631.578947368421" stroke-linecap="square" stroke-width="2" stroke="#d0ab50"/><line x1="1263.1578947368423" y1="736.8421052631579" x2="1368.4210526315792" y2="631.578947368421" stroke-linecap="square" stroke-width="2" stroke="#d2ae54"/><line x1="1368.4210526315792" y1="736.8421052631579" x2="1473.684210526316" y2="631.578947368421" stroke-linecap="square" stroke-width="2" stroke="#d5b158"/><line x1="1473.684210526316" y1="736.8421052631579" x2="1578.947368421053" y2="631.578947368421" stroke-linecap="square" stroke-width="2" stroke="#d7b55b"/><line x1="1578.947368421053" y1="736.8421052631579" x2="1684.2105263157898" y2="631.578947368421" stroke-linecap="square" stroke-width="2" stroke="#dab85f"/><line x1="1684.2105263157898" y1="736.8421052631579" x2="1789.4736842105267" y2="631.578947368421" stroke-linecap="square" stroke-width="2" stroke="#dcbb63"/><line x1="1789.4736842105267" y1="736.8421052631579" x2="1894.7368421052636" y2="631.578947368421" stroke-linecap="square" stroke-width="2" stroke="#dfbe67"/><line x1="1894.7368421052636" y1="631.578947368421" x2="2000.0000000000005" y2="736.8421052631579" stroke-linecap="square" stroke-width="2" stroke="#e1c16b"/><line x1="0" y1="842.1052631578948" x2="105.26315789473684" y2="736.8421052631579" stroke-linecap="square" stroke-width="2" stroke="#b58925"/><line x1="105.26315789473684" y1="736.8421052631579" x2="210.52631578947367" y2="842.1052631578948" stroke-linecap="square" stroke-width="2" stroke="#b78c29"/><line x1="210.52631578947367" y1="736.8421052631579" x2="315.7894736842105" y2="842.1052631578948" stroke-linecap="square" stroke-width="2" stroke="#ba8f2d"/><line x1="315.7894736842105" y1="842.1052631578948" x2="421.05263157894734" y2="736.8421052631579" stroke-linecap="square" stroke-width="2" stroke="#bc9231"/><line x1="421.05263157894734" y1="842.1052631578948" x2="526.3157894736842" y2="736.8421052631579" stroke-linecap="square" stroke-width="2" stroke="#bf9535"/><line x1="526.3157894736842" y1="736.8421052631579" x2="631.578947368421" y2="842.1052631578948" stroke-linecap="square" stroke-width="2" stroke="#c19938"/><line x1="631.578947368421" y1="842.1052631578948" x2="736.8421052631579" y2="736.8421052631579" stroke-linecap="square" stroke-width="2" stroke="#c49c3c"/><line x1="736.8421052631579" y1="736.8421052631579" x2="842.1052631578948" y2="842.1052631578948" stroke-linecap="square" stroke-width="2" stroke="#c69f40"/><line x1="842.1052631578948" y1="736.8421052631579" x2="947.3684210526317" y2="842.1052631578948" stroke-linecap="square" stroke-width="2" stroke="#c9a244"/><line x1="947.3684210526317" y1="842.1052631578948" x2="1052.6315789473686" y2="736.8421052631579" stroke-linecap="square" stroke-width="2" stroke="#cba548"/><line x1="1052.6315789473686" y1="736.8421052631579" x2="1157.8947368421054" y2="842.1052631578948" stroke-linecap="square" stroke-width="2" stroke="#cda84c"/><line x1="1157.8947368421054" y1="736.8421052631579" x2="1263.1578947368423" y2="842.1052631578948" stroke-linecap="square" stroke-width="2" stroke="#d0ab50"/><line x1="1263.1578947368423" y1="736.8421052631579" x2="1368.4210526315792" y2="842.1052631578948" stroke-linecap="square" stroke-width="2" stroke="#d2ae54"/><line x1="1368.4210526315792" y1="842.1052631578948" x2="1473.684210526316" y2="736.8421052631579" stroke-linecap="square" stroke-width="2" stroke="#d5b158"/><line x1="1473.684210526316" y1="736.8421052631579" x2="1578.947368421053" y2="842.1052631578948" stroke-linecap="square" stroke-width="2" stroke="#d7b55b"/><line x1="1578.947368421053" y1="842.1052631578948" x2="1684.2105263157898" y2="736.8421052631579" stroke-linecap="square" stroke-width="2" stroke="#dab85f"/><line x1="1684.2105263157898" y1="842.1052631578948" x2="1789.4736842105267" y2="736.8421052631579" stroke-linecap="square" stroke-width="2" stroke="#dcbb63"/><line x1="1789.4736842105267" y1="736.8421052631579" x2="1894.7368421052636" y2="842.1052631578948" stroke-linecap="square" stroke-width="2" stroke="#dfbe67"/><line x1="1894.7368421052636" y1="842.1052631578948" x2="2000.0000000000005" y2="736.8421052631579" stroke-linecap="square" stroke-width="2" stroke="#e1c16b"/><line x1="0" y1="842.1052631578948" x2="105.26315789473684" y2="947.3684210526317" stroke-linecap="square" stroke-width="2" stroke="#b58925"/><line x1="105.26315789473684" y1="947.3684210526317" x2="210.52631578947367" y2="842.1052631578948" stroke-linecap="square" stroke-width="2" stroke="#b78c29"/><line x1="210.52631578947367" y1="947.3684210526317" x2="315.7894736842105" y2="842.1052631578948" stroke-linecap="square" stroke-width="2" stroke="#ba8f2d"/><line x1="315.7894736842105" y1="947.3684210526317" x2="421.05263157894734" y2="842.1052631578948" stroke-linecap="square" stroke-width="2" stroke="#bc9231"/><line x1="421.05263157894734" y1="947.3684210526317" x2="526.3157894736842" y2="842.1052631578948" stroke-linecap="square" stroke-width="2" stroke="#bf9535"/><line x1="526.3157894736842" y1="947.3684210526317" x2="631.578947368421" y2="842.1052631578948" stroke-linecap="square" stroke-width="2" stroke="#c19938"/><line x1="631.578947368421" y1="947.3684210526317" x2="736.8421052631579" y2="842.1052631578948" stroke-linecap="square" stroke-width="2" stroke="#c49c3c"/><line x1="736.8421052631579" y1="947.3684210526317" x2="842.1052631578948" y2="842.1052631578948" stroke-linecap="square" stroke-width="2" stroke="#c69f40"/><line x1="842.1052631578948" y1="947.3684210526317" x2="947.3684210526317" y2="842.1052631578948" stroke-linecap="square" stroke-width="2" stroke="#c9a244"/><line x1="947.3684210526317" y1="842.1052631578948" x2="1052.6315789473686" y2="947.3684210526317" stroke-linecap="square" stroke-width="2" stroke="#cba548"/><line x1="1052.6315789473686" y1="842.1052631578948" x2="1157.8947368421054" y2="947.3684210526317" stroke-linecap="square" stroke-width="2" stroke="#cda84c"/><line x1="1157.8947368421054" y1="842.1052631578948" x2="1263.1578947368423" y2="947.3684210526317" stroke-linecap="square" stroke-width="2" stroke="#d0ab50"/><line x1="1263.1578947368423" y1="842.1052631578948" x2="1368.4210526315792" y2="947.3684210526317" stroke-linecap="square" stroke-width="2" stroke="#d2ae54"/><line x1="1368.4210526315792" y1="842.1052631578948" x2="1473.684210526316" y2="947.3684210526317" stroke-linecap="square" stroke-width="2" stroke="#d5b158"/><line x1="1473.684210526316" y1="947.3684210526317" x2="1578.947368421053" y2="842.1052631578948" stroke-linecap="square" stroke-width="2" stroke="#d7b55b"/><line x1="1578.947368421053" y1="842.1052631578948" x2="1684.2105263157898" y2="947.3684210526317" stroke-linecap="square" stroke-width="2" stroke="#dab85f"/><line x1="1684.2105263157898" y1="947.3684210526317" x2="1789.4736842105267" y2="842.1052631578948" stroke-linecap="square" stroke-width="2" stroke="#dcbb63"/><line x1="1789.4736842105267" y1="947.3684210526317" x2="1894.7368421052636" y2="842.1052631578948" stroke-linecap="square" stroke-width="2" stroke="#dfbe67"/><line x1="1894.7368421052636" y1="947.3684210526317" x2="2000.0000000000005" y2="842.1052631578948" stroke-linecap="square" stroke-width="2" stroke="#e1c16b"/><line x1="0" y1="1052.6315789473686" x2="105.26315789473684" y2="947.3684210526317" stroke-linecap="square" stroke-width="2" stroke="#b58925"/><line x1="105.26315789473684" y1="1052.6315789473686" x2="210.52631578947367" y2="947.3684210526317" stroke-linecap="square" stroke-width="2" stroke="#b78c29"/><line x1="210.52631578947367" y1="1052.6315789473686" x2="315.7894736842105" y2="947.3684210526317" stroke-linecap="square" stroke-width="2" stroke="#ba8f2d"/><line x1="315.7894736842105" y1="947.3684210526317" x2="421.05263157894734" y2="1052.6315789473686" stroke-linecap="square" stroke-width="2" stroke="#bc9231"/><line x1="421.05263157894734" y1="947.3684210526317" x2="526.3157894736842" y2="1052.6315789473686" stroke-linecap="square" stroke-width="2" stroke="#bf9535"/><line x1="526.3157894736842" y1="947.3684210526317" x2="631.578947368421" y2="1052.6315789473686" stroke-linecap="square" stroke-width="2" stroke="#c19938"/><line x1="631.578947368421" y1="947.3684210526317" x2="736.8421052631579" y2="1052.6315789473686" stroke-linecap="square" stroke-width="2" stroke="#c49c3c"/><line x1="736.8421052631579" y1="1052.6315789473686" x2="842.1052631578948" y2="947.3684210526317" stroke-linecap="square" stroke-width="2" stroke="#c69f40"/><line x1="842.1052631578948" y1="1052.6315789473686" x2="947.3684210526317" y2="947.3684210526317" stroke-linecap="square" stroke-width="2" stroke="#c9a244"/><line x1="947.3684210526317" y1="1052.6315789473686" x2="1052.6315789473686" y2="947.3684210526317" stroke-linecap="square" stroke-width="2" stroke="#cba548"/><line x1="1052.6315789473686" y1="1052.6315789473686" x2="1157.8947368421054" y2="947.3684210526317" stroke-linecap="square" stroke-width="2" stroke="#cda84c"/><line x1="1157.8947368421054" y1="947.3684210526317" x2="1263.1578947368423" y2="1052.6315789473686" stroke-linecap="square" stroke-width="2" stroke="#d0ab50"/><line x1="1263.1578947368423" y1="1052.6315789473686" x2="1368.4210526315792" y2="947.3684210526317" stroke-linecap="square" stroke-width="2" stroke="#d2ae54"/><line x1="1368.4210526315792" y1="1052.6315789473686" x2="1473.684210526316" y2="947.3684210526317" stroke-linecap="square" stroke-width="2" stroke="#d5b158"/><line x1="1473.684210526316" y1="947.3684210526317" x2="1578.947368421053" y2="1052.6315789473686" stroke-linecap="square" stroke-width="2" stroke="#d7b55b"/><line x1="1578.947368421053" y1="1052.6315789473686" x2="1684.2105263157898" y2="947.3684210526317" stroke-linecap="square" stroke-width="2" stroke="#dab85f"/><line x1="1684.2105263157898" y1="947.3684210526317" x2="1789.4736842105267" y2="1052.6315789473686" stroke-linecap="square" stroke-width="2" stroke="#dcbb63"/><line x1="1789.4736842105267" y1="1052.6315789473686" x2="1894.7368421052636" y2="947.3684210526317" stroke-linecap="square" stroke-width="2" stroke="#dfbe67"/><line x1="1894.7368421052636" y1="1052.6315789473686" x2="2000.0000000000005" y2="947.3684210526317" stroke-linecap="square" stroke-width="2" stroke="#e1c16b"/></svg>