<svg id="canvas" height="auto" xmlns="http://www.w3.org/2000/svg" version="1.1" xmlns:xlink="http://www.w3.org/1999/xlink" viewBox="0 0 500 800" width="auto" style="width: auto; height: auto;"><rect width="500" height="800" fill="#1e1e1e"/><line x1="0" y1="55.55555555555556" x2="55.55555555555556" y2="0" stroke-linecap="square" stroke-width="1" stroke="#4169e1"/><line x1="55.55555555555556" y1="55.55555555555556" x2="111.11111111111111" y2="0" stroke-linecap="square" stroke-width="1" stroke="#446be1"/><line x1="111.11111111111111" y1="0" x2="166.66666666666669" y2="55.55555555555556" stroke-linecap="square" stroke-width="1" stroke="#476de1"/><line x1="166.66666666666669" y1="0" x2="222.22222222222223" y2="55.55555555555556" stroke-linecap="square" stroke-width="1" stroke="#4a6fe1"/><line x1="222.22222222222223" y1="55.55555555555556" x2="277.77777777777777" y2="0" stroke-linecap="square" stroke-width="1" stroke="#4e72e1"/><line x1="277.77777777777777" y1="0" x2="333.3333333333333" y2="55.55555555555556" stroke-linecap="square" stroke-width="1" stroke="#5174e1"/><line x1="333.3333333333333" y1="55.55555555555556" x2="388.88888888888886" y2="0" stroke-linecap="square" stroke-width="1" stroke="#5476e1"/><line x1="388.88888888888886" y1="55.55555555555556" x2="444.4444444444444" y2="0" stroke-linecap="square" stroke-width="1" stroke="#5778e1"/><line x1="444.4444444444444" y1="0" x2="499.99999999999994" y2="55.55555555555556" stroke-linecap="square" stroke-width="1" stroke="#5a7ae1"/><line x1="0" y1="55.55555555555556" x2="55.55555555555556" y2="111.11111111111111" stroke-linecap="square" stroke-width="1" stroke="#4169e1"/><line x1="55.55555555555556" y1="111.11111111111111" x2="111.11111111111111" y2="55.55555555555556" stroke-linecap="square" stroke-width="1" stroke="#446be1"/><line x1="111.11111111111111" y1="111.11111111111111" x2="166.66666666666669" y2="55.55555555555556" stroke-linecap="square" stroke-width="1" stroke="#476de1"/><line x1="166.66666666666669" y1="55.55555555555556" x2="222.22222222222223" y2="111.11111111111111" stroke-linecap="square" stroke-width="1" stroke="#4a6fe1"/><line x1="222.22222222222223" y1="111.11111111111111" x2="277.77777777777777" y2="55.55555555555556" stroke-linecap="square" stroke-width="1" stroke="#4e72e1"/><line x1="277.77777777777777" y1="55.55555555555556" x2="333.3333333333333" y2="111.11111111111111" stroke-linecap="square" stroke-width="1" stroke="#5174e1"/><line x1="333.3333333333333" y1="111.11111111111111" x2="388.88888888888886" y2="55.55555555555556" stroke-linecap="square" stroke-width="1" stroke="#5476e1"/><line x1="388.88888888888886" y1="55.55555555555556" x2="444.4444444444444" y2="111.11111111111111" stroke-linecap="square" stroke-width="1" stroke="#5778e1"/><line x1="444.4444444444444" y1="111.11111111111111" x2="499.99999999999994" y2="55.55555555555556" stroke-linecap="square" stroke-width="1" stroke="#5a7ae1"/><line x1="0" y1="111.11111111111111" x2="55.55555555555556" y2="166.66666666666669" stroke-linecap="square" stroke-width="1" stroke="#4169e1"/><line x1="55.55555555555556" y1="166.66666666666669" x2="111.11111111111111" y2="111.11111111111111" stroke-linecap="square" stroke-width="1" stroke="#446be1"/><line x1="111.11111111111111" y1="111.11111111111111" x2="166.66666666666669" y2="166.66666666666669" stroke-linecap="square" stroke-width="1" stroke="#476de1"/><line x1="166.66666666666669" y1="166.66666666666669" x2="222.22222222222223" y2="111.11111111111111" stroke-linecap="square" stroke-width="1" stroke="#4a6fe1"/><line x1="222.22222222222223" y1="166.66666666666669" x2="277.77777777777777" y2="111.11111111111111" stroke-linecap="square" stroke-width="1" stroke="#4e72e1"/><line x1="277.77777777777777" y1="111.11111111111111" x2="333.3333333333333" y2="166.66666666666669" stroke-linecap="square" stroke-width="1" stroke="#5174e1"/><line x1="333.3333333333333" y1="166.66666666666669" x2="388.88888888888886" y2="111.11111111111111" stroke-linecap="square" stroke-width="1" stroke="#5476e1"/><line x1="388.88888888888886" y1="111.11111111111111" x2="444.4444444444444" y2="166.66666666666669" stroke-linecap="square" stroke-width="1" stroke="#5778e1"/><line x1="444.4444444444444" y1="111.11111111111111" x2="499.99999999999994" y2="166.66666666666669" stroke-linecap="square" stroke-width="1" stroke="#5a7ae1"/><line x1="0" y1="166.66666666666669" x2="55.55555555555556" y2="222.22222222222223" stroke-linecap="square" stroke-width="1" stroke="#4169e1"/><line x1="55.55555555555556" y1="166.66666666666669" x2="111.11111111111111" y2="222.22222222222223" stroke-linecap="square" stroke-width="1" stroke="#446be1"/><line x1="111.11111111111111" y1="222.22222222222223" x2="166.66666666666669" y2="166.66666666666669" stroke-linecap="square" stroke-width="1" stroke="#476de1"/><line x1="166.66666666666669" y1="222.22222222222223" x2="222.22222222222223" y2="166.66666666666669" stroke-linecap="square" stroke-width="1" stroke="#4a6fe1"/><line x1="222.22222222222223" y1="222.22222222222223" x2="277.77777777777777" y2="166.66666666666669" stroke-linecap="square" stroke-width="1" stroke="#4e72e1"/><line x1="277.77777777777777" y1="222.22222222222223" x2="333.3333333333333" y2="166.66666666666669" stroke-linecap="square" stroke-width="1" stroke="#5174e1"/><line x1="333.3333333333333" y1="222.22222222222223" x2="388.88888888888886" y2="166.66666666666669" stroke-linecap="square" stroke-width="1" stroke="#5476e1"/><line x1="388.88888888888886" y1="222.22222222222223" x2="444.4444444444444" y2="166.66666666666669" stroke-linecap="square" stroke-width="1" stroke="#5778e1"/><line x1="444.4444444444444" y1="166.66666666666669" x2="499.99999999999994" y2="222.22222222222223" stroke-linecap="square" stroke-width="1" stroke="#5a7ae1"/><line x1="0" y1="277.77777777777777" x2="55.55555555555556" y2="222.22222222222223" stroke-linecap="square" stroke-width="1" stroke="#4169e1"/><line x1="55.55555555555556" y1="222.22222222222223" x2="111.11111111111111" y2="277.77777777777777" stroke-linecap="square" stroke-width="1" stroke="#446be1"/><line x1="111.11111111111111" y1="277.77777777777777" x2="166.66666666666669" y2="222.22222222222223" stroke-linecap="square" stroke-width="1" stroke="#476de1"/><line x1="166.66666666666669" y1="222.22222222222223" x2="222.22222222222223" y2="277.77777777777777" stroke-linecap="square" stroke-width="1" stroke="#4a6fe1"/><line x1="222.22222222222223" y1="277.77777777777777" x2="277.77777777777777" y2="222.22222222222223" stroke-linecap="square" stroke-width="1" stroke="#4e72e1"/><line x1="277.77777777777777" y1="277.77777777777777" x2="333.3333333333333" y2="222.22222222222223" stroke-linecap="square" stroke-width="1" stroke="#5174e1"/><line x1="333.3333333333333" y1="222.22222222222223" x2="388.88888888888886" y2="277.77777777777777" stroke-linecap="square" stroke-width="1" stroke="#5476e1"/><line x1="388.88888888888886" y1="277.77777777777777" x2="444.4444444444444" y2="222.22222222222223" stroke-linecap="square" stroke-width="1" stroke="#5778e1"/><line x1="444.4444444444444" y1="277.77777777777777" x2="499.99999999999994" y2="222.22222222222223" stroke-linecap="square" stroke-width="1" stroke="#5a7ae1"/><line x1="0" y1="277.77777777777777" x2="55.55555555555556" y2="333.3333333333333" stroke-linecap="square" stroke-width="1" stroke="#4169e1"/><line x1="55.55555555555556" y1="277.77777777777777" x2="111.11111111111111" y2="333.3333333333333" stroke-linecap="square" stroke-width="1" stroke="#446be1"/><line x1="111.11111111111111" y1="277.77777777777777" x2="166.66666666666669" y2="333.3333333333333" stroke-linecap="square" stroke-width="1" stroke="#476de1"/><line x1="166.66666666666669" y1="333.3333333333333" x2="222.22222222222223" y2="277.77777777777777" stroke-linecap="square" stroke-width="1" stroke="#4a6fe1"/><line x1="222.22222222222223" y1="333.3333333333333" x2="277.77777777777777" y2="277.77777777777777" stroke-linecap="square" stroke-width="1" stroke="#4e72e1"/><line x1="277.77777777777777" y1="277.77777777777777" x2="333.3333333333333" y2="333.3333333333333" stroke-linecap="square" stroke-width="1" stroke="#5174e1"/><line x1="333.3333333333333" y1="277.77777777777777" x2="388.88888888888886" y2="333.3333333333333" stroke-linecap="square" stroke-width="1" stroke="#5476e1"/><line x1="388.88888888888886" y1="333.3333333333333" x2="444.4444444444444" y2="277.77777777777777" stroke-linecap="square" stroke-width="1" stroke="#5778e1"/><line x1="444.4444444444444" y1="277.77777777777777" x2="499.99999999999994" y2="333.3333333333333" stroke-linecap="square" stroke-width="1" stroke="#5a7ae1"/><line x1="0" y1="333.3333333333333" x2="55.55555555555556" y2="388.88888888888886" stroke-linecap="square" stroke-width="1" stroke="#4169e1"/><line x1="55.55555555555556" y1="388.88888888888886" x2="111.11111111111111" y2="333.3333333333333" stroke-linecap="square" stroke-width="1" stroke="#446be1"/><line x1="111.11111111111111" y1="388.88888888888886" x2="166.66666666666669" y2="333.3333333333333" stroke-linecap="square" stroke-width="1" stroke="#476de1"/><line x1="166.66666666666669" y1="388.88888888888886" x2="222.22222222222223" y2="333.3333333333333" stroke-linecap="square" stroke-width="1" stroke="#4a6fe1"/><line x1="222.22222222222223" y1="333.3333333333333" x2="277.77777777777777" y2="388.88888888888886" stroke-linecap="square" stroke-width="1" stroke="#4e72e1"/><line x1="277.77777777777777" y1="333.3333333333333" x2="333.3333333333333" y2="388.88888888888886" stroke-linecap="square" stroke-width="1" stroke="#5174e1"/><line x1="333.3333333333333" y1="388.88888888888886" x2="388.88888888888886" y2="333.3333333333333" stroke-linecap="square" stroke-width="1" stroke="#5476e1"/><line x1="388.88888888888886" y1="333.3333333333333" x2="444.4444444444444" y2="388.88888888888886" stroke-linecap="square" stroke-width="1" stroke="#5778e1"/><line x1="444.4444444444444" y1="333.3333333333333" x2="499.99999999999994" y2="388.88888888888886" stroke-linecap="square" stroke-width="1" stroke="#5a7ae1"/><line x1="0" y1="388.88888888888886" x2="55.55555555555556" y2="444.4444444444444" stroke-linecap="square" stroke-width="1" stroke="#4169e1"/><line x1="55.55555555555556" y1="388.88888888888886" x2="111.11111111111111" y2="444.4444444444444" stroke-linecap="square" stroke-width="1" stroke="#446be1"/><line x1="111.11111111111111" y1="444.4444444444444" x2="166.66666666666669" y2="388.88888888888886" stroke-linecap="square" stroke-width="1" stroke="#476de1"/><line x1="166.66666666666669" y1="444.4444444444444" x2="222.22222222222223" y2="388.88888888888886" stroke-linecap="square" stroke-width="1" stroke="#4a6fe1"/><line x1="222.22222222222223" y1="388.88888888888886" x2="277.77777777777777" y2="444.4444444444444" stroke-linecap="square" stroke-width="1" stroke="#4e72e1"/><line x1="277.77777777777777" y1="388.88888888888886" x2="333.3333333333333" y2="444.4444444444444" stroke-linecap="square" stroke-width="1" stroke="#5174e1"/><line x1="333.3333333333333" y1="444.4444444444444" x2="388.88888888888886" y2="388.88888888888886" stroke-linecap="square" stroke-width="1" stroke="#5476e1"/><line x1="388.88888888888886" y1="444.4444444444444" x2="444.4444444444444" y2="388.88888888888886" stroke-linecap="square" stroke-width="1" stroke="#5778e1"/><line x1="444.4444444444444" y1="388.88888888888886" x2="499.99999999999994" y2="444.4444444444444" stroke-linecap="square" stroke-width="1" stroke="#5a7ae1"/><line x1="0" y1="444.4444444444444" x2="55.55555555555556" y2="499.99999999999994" stroke-linecap="square" stroke-width="1" stroke="#4169e1"/><line x1="55.55555555555556" y1="444.4444444444444" x2="111.11111111111111" y2="499.99999999999994" stroke-linecap="square" stroke-width="1" stroke="#446be1"/><line x1="111.11111111111111" y1="499.99999999999994" x2="166.66666666666669" y2="444.4444444444444" stroke-linecap="square" stroke-width="1" stroke="#476de1"/><line x1="166.66666666666669" y1="499.99999999999994" x2="222.22222222222223" y2="444.4444444444444" stroke-linecap="square" stroke-width="1" stroke="#4a6fe1"/><line x1="222.22222222222223" y1="499.99999999999994" x2="277.77777777777777" y2="444.4444444444444" stroke-linecap="square" stroke-width="1" stroke="#4e72e1"/><line x1="277.77777777777777" y1="499.99999999999994" x2="333.3333333333333" y2="444.4444444444444" stroke-linecap="square" stroke-width="1" stroke="#5174e1"/><line x1="333.3333333333333" y1="499.99999999999994" x2="388.88888888888886" y2="444.4444444444444" stroke-linecap="square" stroke-width="1" stroke="#5476e1"/><line x1="388.88888888888886" y1="499.99999999999994" x2="444.4444444444444" y2="444.4444444444444" stroke-linecap="square" stroke-width="1" stroke="#5778e1"/><line x1="444.4444444444444" y1="444.4444444444444" x2="499.99999999999994" y2="499.99999999999994" stroke-linecap="square" stroke-width="1" stroke="#5a7ae1"/><line x1="0" y1="499.99999999999994" x2="55.55555555555556" y2="555.5555555555555" stroke-linecap="square" stroke-width="1" stroke="#4169e1"/><line x1="55.55555555555556" y1="499.99999999999994" x2="111.11111111111111" y2="555.5555555555555" stroke-linecap="square" stroke-width="1" stroke="#446be1"/><line x1="111.11111111111111" y1="499.99999999999994" x2="166.66666666666669" y2="555.5555555555555" stroke-linecap="square" stroke-width="1" stroke="#476de1"/><line x1="166.66666666666669" y1="555.5555555555555" x2="222.22222222222223" y2="499.99999999999994" stroke-linecap="square" stroke-width="1" stroke="#4a6fe1"/><line x1="222.22222222222223" y1="499.99999999999994" x2="277.77777777777777" y2="555.5555555555555" stroke-linecap="square" stroke-width="1" stroke="#4e72e1"/><line x1="277.77777777777777" y1="555.5555555555555" x2="333.3333333333333" y2="499.99999999999994" stroke-linecap="square" stroke-width="1" stroke="#5174e1"/><line x1="333.3333333333333" y1="499.99999999999994" x2="388.88888888888886" y2="555.5555555555555" stroke-linecap="square" stroke-width="1" stroke="#5476e1"/><line x1="388.88888888888886" y1="499.99999999999994" x2="444.4444444444444" y2="555.5555555555555" stroke-linecap="square" stroke-width="1" stroke="#5778e1"/><line x1="444.4444444444444" y1="555.5555555555555" x2="499.99999999999994" y2="499.99999999999994" stroke-linecap="square" stroke-width="1" stroke="#5a7ae1"/><line x1="0" y1="611.1111111111111" x2="55.55555555555556" y2="555.5555555555555" stroke-linecap="square" stroke-width="1" stroke="#4169e1"/><line x1="55.55555555555556" y1="611.1111111111111" x2="111.11111111111111" y2="555.5555555555555" stroke-linecap="square" stroke-width="1" stroke="#446be1"/><line x1="111.11111111111111" y1="555.5555555555555" x2="166.66666666666669" y2="611.1111111111111" stroke-linecap="square" stroke-width="1" stroke="#476de1"/><line x1="166.66666666666669" y1="555.5555555555555" x2="222.22222222222223" y2="611.1111111111111" stroke-linecap="square" stroke-width="1" stroke="#4a6fe1"/><line x1="222.22222222222223" y1="555.5555555555555" x2="277.77777777777777" y2="611.1111111111111" stroke-linecap="square" stroke-width="1" stroke="#4e72e1"/><line x1="277.77777777777777" y1="555.5555555555555" x2="333.3333333333333" y2="611.1111111111111" stroke-linecap="square" stroke-width="1" stroke="#5174e1"/><line x1="333.3333333333333" y1="555.5555555555555" x2="388.88888888888886" y2="611.1111111111111" stroke-linecap="square" stroke-width="1" stroke="#5476e1"/><line x1="388.88888888888886" y1="555.5555555555555" x2="444.4444444444444" y2="611.1111111111111" stroke-linecap="square" stroke-width="1" stroke="#5778e1"/><line x1="444.4444444444444" y1="611.1111111111111" x2="499.99999999999994" y2="555.5555555555555" stroke-linecap="square" stroke-width="1" stroke="#5a7ae1"/><line x1="0" y1="611.1111111111111" x2="55.55555555555556" y2="666.6666666666666" stroke-linecap="square" stroke-width="1" stroke="#4169e1"/><line x1="55.55555555555556" y1="611.1111111111111" x2="111.11111111111111" y2="666.6666666666666" stroke-linecap="square" stroke-width="1" stroke="#446be1"/><line x1="111.11111111111111" y1="666.6666666666666" x2="166.66666666666669" y2="611.1111111111111" stroke-linecap="square" stroke-width="1" stroke="#476de1"/><line x1="166.66666666666669" y1="666.6666666666666" x2="222.22222222222223" y2="611.1111111111111" stroke-linecap="square" stroke-width="1" stroke="#4a6fe1"/><line x1="222.22222222222223" y1="611.1111111111111" x2="277.77777777777777" y2="666.6666666666666" stroke-linecap="square" stroke-width="1" stroke="#4e72e1"/><line x1="277.77777777777777" y1="666.6666666666666" x2="333.3333333333333" y2="611.1111111111111" stroke-linecap="square" stroke-width="1" stroke="#5174e1"/><line x1="333.3333333333333" y1="611.1111111111111" x2="388.88888888888886" y2="666.6666666666666" stroke-linecap="square" stroke-width="1" stroke="#5476e1"/><line x1="388.88888888888886" y1="666.6666666666666" x2="444.4444444444444" y2="611.1111111111111" stroke-linecap="square" stroke-width="1" stroke="#5778e1"/><line x1="444.4444444444444" y1="611.1111111111111" x2="499.99999999999994" y2="666.6666666666666" stroke-linecap="square" stroke-width="1" stroke="#5a7ae1"/><line x1="0" y1="666.6666666666666" x2="55.55555555555556" y2="722.2222222222222" stroke-linecap="square" stroke-width="1" stroke="#4169e1"/><line x1="55.55555555555556" y1="666.6666666666666" x2="111.11111111111111" y2="722.2222222222222" stroke-linecap="square" stroke-width="1" stroke="#446be1"/><line x1="111.11111111111111" y1="666.6666666666666" x2="166.66666666666669" y2="722.2222222222222" stroke-linecap="square" stroke-width="1" stroke="#476de1"/><line x1="166.66666666666669" y1="722.2222222222222" x2="222.22222222222223" y2="666.6666666666666" stroke-linecap="square" stroke-width="1" stroke="#4a6fe1"/><line x1="222.22222222222223" y1="722.2222222222222" x2="277.77777777777777" y2="666.6666666666666" stroke-linecap="square" stroke-width="1" stroke="#4e72e1"/><line x1="277.77777777777777" y1="666.6666666666666" x2="333.3333333333333" y2="722.2222222222222" stroke-linecap="square" stroke-width="1" stroke="#5174e1"/><line x1="333.3333333333333" y1="722.2222222222222" x2="388.88888888888886" y2="666.6666666666666" stroke-linecap="square" stroke-width="1" stroke="#5476e1"/><line x1="388.88888888888886" y1="722.2222222222222" x2="444.4444444444444" y2="666.6666666666666" stroke-linecap="square" stroke-width="1" stroke="#5778e1"/><line x1="444.4444444444444" y1="666.6666666666666" x2="499.99999999999994" y2="722.2222222222222" stroke-linecap="square" stroke-width="1" stroke="#5a7ae1"/><line x1="0" y1="777.7777777777777" x2="55.55555555555556" y2="722.2222222222222" stroke-linecap="square" stroke-width="1" stroke="#4169e1"/><line x1="55.55555555555556" y1="777.7777777777777" x2="111.11111111111111" y2="722.2222222222222" stroke-linecap="square" stroke-width="1" stroke="#446be1"/><line x1="111.11111111111111" y1="722.2222222222222" x2="166.66666666666669" y2="777.7777777777777" stroke-linecap="square" stroke-width="1" stroke="#476de1"/><line x1="166.66666666666669" y1="777.7777777777777" x2="222.22222222222223" y2="722.2222222222222" stroke-linecap="square" stroke-width="1" stroke="#4a6fe1"/><line x1="222.22222222222223" y1="722.2222222222222" x2="277.77777777777777" y2="777.7777777777777" stroke-linecap="square" stroke-width="1" stroke="#4e72e1"/><line x1="277.77777777777777" y1="722.2222222222222" x2="333.3333333333333" y2="777.7777777777777" stroke-linecap="square" stroke-width="1" stroke="#5174e1"/><line x1="333.3333333333333" y1="777.7777777777777" x2="388.88888888888886" y2="722.2222222222222" stroke-linecap="square" stroke-width="1" stroke="#5476e1"/><line x1="388.88888888888886" y1="777.7777777777777" x2="444.4444444444444" y2="722.2222222222222" stroke-linecap="square" stroke-width="1" stroke="#5778e1"/><line x1="444.4444444444444" y1="777.7777777777777" x2="499.99999999999994" y2="722.2222222222222" stroke-linecap="square" stroke-width="1" stroke="#5a7ae1"/><line x1="0" y1="777.7777777777777" x2="55.55555555555556" y2="833.3333333333333" stroke-linecap="square" stroke-width="1" stroke="#4169e1"/><line x1="55.55555555555556" y1="833.3333333333333" x2="111.11111111111111" y2="777.7777777777777" stroke-linecap="square" stroke-width="1" stroke="#446be1"/><line x1="111.11111111111111" y1="777.7777777777777" x2="166.66666666666669" y2="833.3333333333333" stroke-linecap="square" stroke-width="1" stroke="#476de1"/><line x1="166.66666666666669" y1="833.3333333333333" x2="222.22222222222223" y2="777.7777777777777" stroke-linecap="square" stroke-width="1" stroke="#4a6fe1"/><line x1="222.22222222222223" y1="833.3333333333333" x2="277.77777777777777" y2="777.7777777777777" stroke-linecap="square" stroke-width="1" stroke="#4e72e1"/><line x1="277.77777777777777" y1="833.3333333333333" x2="333.3333333333333" y2="777.7777777777777" stroke-linecap="square" stroke-width="1" stroke="#5174e1"/><line x1="333.3333333333333" y1="777.7777777777777" x2="388.88888888888886" y2="833.3333333333333" stroke-linecap="square" stroke-width="1" stroke="#5476e1"/><line x1="388.88888888888886" y1="833.3333333333333" x2="444.4444444444444" y2="777.7777777777777" stroke-linecap="square" stroke-width="1" stroke="#5778e1"/><line x1="444.4444444444444" y1="777.7777777777777" x2="499.99999999999994" y2="833.3333333333333" stroke-linecap="square" stroke-width="1" stroke="#5a7ae1"/></svg>